<svg width="264.22" height="225.64" viewBox="0 0 264.22 225.64" xmlns="http://www.w3.org/2000/svg" xmlns:xlink="http://www.w3.org/1999/xlink" overflow="hidden"><defs></defs><g><g><path d="M93.85 72.72C84.91 72.72 77.66 75.32 77.66 78.52 77.66 81.72 84.91 84.32 93.85 84.32 102.79 84.32 110.04 81.72 110.04 78.52 110.04 75.31 102.79 72.72 93.85 72.72Z" fill-rule="evenodd" clip-rule="evenodd" opacity="0.15"/><path d="M101.92 37.07C103.12 37.53 103.97 38.7 103.97 40.06 103.97 40.15 103.97 40.24 103.96 40.33L104.51 57.66 103.55 74.88 108.14 77.64C108.14 77.98 107.92 78.31 107.47 78.57 107.02 78.83 106.44 78.96 105.86 78.96L100.57 76.46C100.12 76.2 99.9 75.87 99.9 75.53 99.9 75.51 99.9 75.48 99.9 75.46L100.23 58.28 99.22 46.34 98.41 46.37 97.5 61.62 95.45 79.18 100.08 82.02C100.08 82.36 99.86 82.69 99.41 82.95 98.97 83.21 98.38 83.34 97.8 83.34L92.55 80.88C92.26 80.71 92.07 80.51 91.96 80.3 91.83 80.02 91.89 79.71 91.9 79.41L92.92 61.56 92.31 43.3C92.3 43.21 92.3 43.12 92.3 43.03 92.3 41.12 93.49 40.5 94.88 39.71L97.69 38.12 98.99 37.39C99.98 36.84 100.95 36.7 101.92 37.07Z" fill="#FFFFFF" fill-rule="evenodd" clip-rule="evenodd"/><path d="M102.25 36.21C103.03 36.51 103.7 37.05 104.17 37.73 104.63 38.39 104.89 39.2 104.89 40.06L104.88 40.37 105.43 57.64C105.43 57.67 105.43 57.69 105.43 57.72L104.5 74.38 108.61 76.86C108.9 77.03 109.06 77.34 109.06 77.65 109.06 78.01 108.94 78.37 108.71 78.69L108.71 78.69C108.53 78.94 108.27 79.18 107.93 79.37L107.93 79.37C107.64 79.54 107.3 79.67 106.94 79.75 106.58 79.84 106.21 79.88 105.85 79.88 105.69 79.88 105.53 79.84 105.4 79.76L100.16 77.29C100.11 77.27 100.07 77.24 100.03 77.22 99.72 77.03 99.48 76.81 99.31 76.57L99.31 76.57 99.31 76.57C99.08 76.25 98.96 75.89 98.96 75.53 98.96 75.5 98.96 75.47 98.96 75.43 99.25 69.86 99.18 63.95 99.29 58.34L98.89 53.59 98.42 61.66 98.42 61.71 98.42 61.71 96.43 78.7 100.55 81.23C100.83 81.4 100.99 81.71 100.99 82.02L100.99 82.02C100.99 82.38 100.87 82.74 100.64 83.06L100.64 83.06C100.46 83.31 100.19 83.55 99.86 83.74L99.86 83.74C99.57 83.91 99.23 84.04 98.87 84.12 98.51 84.21 98.14 84.25 97.78 84.25 97.61 84.25 97.45 84.2 97.31 84.12L92.14 81.69C92.11 81.67 92.07 81.66 92.04 81.64 91.84 81.52 91.67 81.39 91.52 81.25 91.34 81.07 91.21 80.88 91.11 80.68 90.9 80.24 90.92 79.87 90.95 79.5 91.36 73.53 91.64 67.5 91.98 61.52L91.37 43.35 91.37 43.35 91.36 43.01C91.36 40.62 92.7 39.86 94.31 38.95L94.42 38.89 94.42 38.89C95.79 38.12 97.16 37.32 98.54 36.56L98.54 36.56C99.14 36.23 99.74 36.02 100.35 35.95 100.98 35.89 101.61 35.97 102.25 36.21L102.25 36.21ZM102.65 38.77C102.39 38.39 102.02 38.09 101.59 37.93 101.25 37.8 100.91 37.76 100.57 37.8 100.2 37.84 99.82 37.98 99.43 38.2L95.34 40.51 95.34 40.51 95.23 40.57C94.14 41.19 93.23 41.7 93.23 43.03L93.23 43.13 93.24 43.22 93.24 43.22 93.86 61.49C93.86 61.53 93.86 61.57 93.86 61.61L92.83 79.64 92.81 79.89C92.82 79.9 92.83 79.92 92.85 79.94 92.89 79.98 92.94 80.01 92.99 80.05L98 82.4C98.17 82.39 98.33 82.37 98.47 82.33 98.56 82.31 98.65 82.28 98.73 82.25L95.02 79.97C94.7 79.8 94.5 79.44 94.54 79.06L96.59 61.5 97.48 46.3C97.51 45.83 97.89 45.45 98.37 45.43L99.11 45.4 99.14 45.4C99.65 45.36 100.09 45.74 100.13 46.24L101.14 58.18 101.14 58.18C101.14 58.21 101.14 58.24 101.14 58.27L100.81 75.39C100.81 75.42 100.81 75.44 100.81 75.47 100.84 75.51 100.9 75.56 100.97 75.61L106.04 78C106.21 77.99 106.37 77.97 106.51 77.93 106.59 77.91 106.68 77.88 106.76 77.86L103.07 75.64 103.07 75.64C102.79 75.47 102.61 75.15 102.63 74.8L103.59 57.61 103.05 40.4C103.04 40.34 103.04 40.28 103.05 40.22 103.06 40.15 103.06 40.1 103.06 40.03 103.04 39.58 102.9 39.14 102.65 38.77L102.65 38.77ZM100.8 75.5 100.8 75.5 100.8 75.5 100.8 75.5 100.8 75.5ZM100.81 75.53 100.81 75.51 100.81 75.53Z" fill="#0087CA" fill-rule="evenodd" clip-rule="evenodd"/><path d="M103.54 74.88 108.13 77.64C108.13 77.98 107.91 78.31 107.46 78.57 107.01 78.83 106.43 78.96 105.85 78.96L100.56 76.46C100.19 76.25 99.98 75.98 99.91 75.71 101.72 75.98 102.71 75.95 103.54 74.88Z" fill="#00CEF0" fill-rule="evenodd" clip-rule="evenodd"/><path d="M104.02 74.09 108.6 76.85C108.89 77.02 109.05 77.33 109.05 77.64 109.05 78 108.93 78.36 108.7 78.68L108.7 78.68C108.52 78.93 108.26 79.17 107.92 79.36L107.92 79.36C107.63 79.53 107.29 79.66 106.93 79.74 106.57 79.83 106.2 79.87 105.84 79.87 105.68 79.87 105.52 79.83 105.39 79.75L100.15 77.28C100.12 77.27 100.09 77.25 100.07 77.24 99.81 77.08 99.59 76.9 99.42 76.7 99.21 76.46 99.07 76.19 99.01 75.9 98.89 75.4 99.2 74.91 99.7 74.79 99.82 74.76 99.94 74.76 100.05 74.78 100.86 74.9 101.48 74.96 101.93 74.87 102.28 74.81 102.55 74.63 102.82 74.3 103.1 73.95 103.62 73.86 104.02 74.09L104.02 74.09 104.02 74.09ZM106.75 77.89 103.69 76.05C103.43 76.26 103.16 76.42 102.86 76.54L106.03 78.04C106.2 78.03 106.36 78.01 106.5 77.97 106.59 77.95 106.67 77.92 106.75 77.89Z" fill="#0087CA" fill-rule="evenodd" clip-rule="evenodd"/><path d="M95.45 79.18 100.08 82.02C100.08 82.36 99.86 82.69 99.41 82.95 98.97 83.21 98.38 83.34 97.8 83.34L92.55 80.88C92.26 80.71 92.07 80.51 91.96 80.3 91.93 80.24 91.91 80.17 91.9 80.11 93.7 80.37 94.63 80.24 95.45 79.18Z" fill="#00CEF0" fill-rule="evenodd" clip-rule="evenodd"/><path d="M95.93 78.39 100.56 81.23C100.84 81.4 101 81.71 101 82.02L101 82.02C101 82.38 100.88 82.74 100.65 83.06L100.65 83.06C100.47 83.31 100.2 83.55 99.87 83.74L99.87 83.74C99.58 83.91 99.24 84.04 98.88 84.12 98.52 84.21 98.15 84.25 97.79 84.25 97.62 84.25 97.46 84.2 97.32 84.12L92.15 81.69C92.12 81.67 92.08 81.66 92.05 81.64 91.85 81.52 91.68 81.39 91.53 81.25 91.36 81.08 91.22 80.89 91.12 80.68L91.12 80.68C91.08 80.61 91.06 80.54 91.03 80.47 91.01 80.41 91 80.35 90.98 80.27 90.88 79.77 91.2 79.29 91.7 79.19 91.8 79.17 91.91 79.17 92.01 79.18L92.01 79.18C92.8 79.29 93.38 79.33 93.81 79.23 94.15 79.15 94.43 78.96 94.7 78.61 95.01 78.24 95.53 78.15 95.93 78.39L95.93 78.39ZM98.72 82.27 95.61 80.36C95.34 80.59 95.05 80.77 94.74 80.89L97.99 82.42C98.16 82.41 98.32 82.39 98.46 82.35 98.55 82.32 98.63 82.3 98.72 82.27Z" fill="#0087CA" fill-rule="evenodd" clip-rule="evenodd"/><path d="M114.95 32.14 105.42 31.01C105.38 30.97 105.35 30.94 105.31 30.9 105.13 30.69 105 30.46 104.91 30.22L99.21 16.93 103.9 15.29 107.6 28.63 115.22 29.71 119.58 29.73 120.1 30.65 119.32 31.77 118.24 32.94C116.44 33.08 116.32 32.48 114.95 32.14L114.95 32.14Z" fill="#FFFFFF" fill-rule="evenodd" clip-rule="evenodd"/><path d="M114.8 33.05 105.33 31.93C105.1 31.9 104.89 31.79 104.75 31.62L104.72 31.59 104.64 31.51C104.51 31.36 104.4 31.2 104.3 31.04 104.22 30.9 104.14 30.74 104.08 30.58L98.38 17.29C98.18 16.82 98.4 16.28 98.87 16.08 98.9 16.07 98.93 16.06 98.96 16.05L103.62 14.42C104.1 14.25 104.62 14.51 104.79 14.99L104.81 15.05 108.35 27.81 115.32 28.8 119.61 28.82C119.95 28.82 120.25 29.01 120.41 29.29L120.94 30.21C121.12 30.54 121.09 30.93 120.88 31.21L120.12 32.31C120.1 32.35 120.07 32.38 120.04 32.41L118.96 33.58C118.8 33.76 118.58 33.86 118.35 33.87L118.35 33.87C116.93 33.98 116.36 33.72 115.69 33.41L115.69 33.41 115.69 33.41C115.42 33.27 115.15 33.15 114.8 33.05L114.8 33.05ZM105.9 30.14 115.02 31.22C115.1 31.23 115.17 31.24 115.25 31.27 115.79 31.41 116.13 31.57 116.45 31.72L116.45 31.72C116.82 31.89 117.15 32.04 117.84 32.03L118.62 31.18 119 30.63 115.28 30.62C115.22 30.62 115.16 30.62 115.1 30.61L107.48 29.53C107.13 29.48 106.82 29.23 106.72 28.86L103.28 16.47 100.45 17.46 105.76 29.85 105.76 29.85 105.78 29.91C105.8 29.97 105.83 30.04 105.87 30.11L105.9 30.14Z" fill="#0087CA" fill-rule="evenodd" clip-rule="evenodd"/><path d="M104 32.58 103.65 29.19 104.79 25.01C105.67 21.79 105.92 16.69 103.33 14.12 102.27 13.07 100.87 12.4 100.08 12.86L93.39 16.72C92.37 17.29 91.06 18.51 91.03 19.95L92.47 32.68 92.11 34.73C87.46 45.25 92.03 50.35 92.01 56.03 96.83 57.02 102.8 53.54 104.66 49.36 104.55 47.62 105.56 38.88 104 32.58Z" fill="#00CEF0" fill-rule="evenodd" clip-rule="evenodd"/><path d="M103.08 32.65 102.74 29.28C102.73 29.14 102.74 29.01 102.78 28.89L103.91 24.77C104.38 23.06 104.66 20.79 104.38 18.7 104.17 17.16 103.66 15.73 102.69 14.77 102.22 14.31 101.69 13.94 101.21 13.75 100.91 13.63 100.67 13.59 100.55 13.66L100.5 13.69 93.85 17.53 93.85 17.53C93.37 17.8 92.82 18.23 92.43 18.76 92.17 19.11 91.99 19.51 91.96 19.91L93.39 32.59C93.4 32.68 93.4 32.76 93.38 32.85L93.02 34.9C93.01 34.98 92.98 35.06 92.95 35.13 89.87 42.1 91.02 46.61 92.02 50.54 92.43 52.15 92.81 53.67 92.91 55.26 94.85 55.46 96.97 54.92 98.85 53.93 101.01 52.79 102.84 51.07 103.74 49.19 103.73 48.69 103.77 47.93 103.81 46.96 103.97 43.53 104.26 37.45 103.1 32.8 103.09 32.75 103.08 32.7 103.08 32.65L103.08 32.65ZM104.58 29.26 104.9 32.42C106.1 37.31 105.81 43.53 105.64 47.04 105.59 48.12 105.55 48.93 105.57 49.32 105.58 49.46 105.55 49.61 105.49 49.75 104.45 52.08 102.27 54.2 99.69 55.55 97.23 56.85 94.38 57.47 91.81 56.94 91.39 56.85 91.07 56.48 91.07 56.04 91.08 54.41 90.66 52.76 90.21 50.99 89.14 46.79 87.92 41.97 91.21 34.48L91.53 32.66 90.11 20.06 90.11 20.06C90.11 20.02 90.1 19.98 90.1 19.94 90.12 19.1 90.45 18.34 90.92 17.69 91.48 16.92 92.26 16.3 92.92 15.93L92.92 15.93 99.55 12.1 99.6 12.07C100.25 11.7 101.04 11.73 101.84 12.04 102.56 12.32 103.32 12.84 103.96 13.47 105.25 14.76 105.92 16.55 106.18 18.46 106.5 20.8 106.19 23.35 105.66 25.25L104.58 29.26Z" fill="#0087CA" fill-rule="evenodd" clip-rule="evenodd"/><path d="M87.34 40.39 86.74 44.73 85.75 45.15 84.68 48.83 83.51 48.02C83.72 42.99 83.63 43.92 84.99 40.05L86.02 30.96C86.05 30.69 86.13 30.43 86.26 30.21 87.89 26.9 89.02 23.5 90.7 20.38 92.25 17.5 95.62 20.62 94.08 23.15L89.35 30.99 87.34 40.39Z" fill="#FFFFFF" fill-rule="evenodd" clip-rule="evenodd"/><path d="M88.24 40.56 87.65 44.85C87.6 45.2 87.37 45.48 87.06 45.59L86.52 45.82 85.57 49.08C85.43 49.57 84.92 49.85 84.43 49.71 84.33 49.68 84.24 49.64 84.16 49.58L84.16 49.58 82.99 48.77C82.7 48.57 82.56 48.24 82.6 47.91L82.62 47.35C82.71 45.3 82.75 44.35 82.9 43.5 83.04 42.74 83.26 42.14 83.66 41.02 83.77 40.73 83.89 40.39 84.09 39.83L85.11 30.8C85.13 30.62 85.17 30.44 85.22 30.28 85.28 30.09 85.36 29.91 85.46 29.74L85.47 29.73C86.14 28.36 86.76 26.88 87.38 25.41 88.16 23.55 88.93 21.72 89.89 19.93 90.56 18.68 91.54 18.22 92.5 18.3 92.96 18.34 93.4 18.5 93.79 18.76 94.16 19 94.48 19.32 94.75 19.71 95.46 20.75 95.7 22.25 94.87 23.62L94.87 23.62 90.22 31.33 88.24 40.56 88.24 40.56ZM85.9 44.08 86.42 40.3C86.42 40.26 86.43 40.23 86.44 40.19L88.45 30.82C88.47 30.71 88.51 30.6 88.57 30.5L93.3 22.66 93.3 22.66 93.3 22.66C93.71 22 93.59 21.26 93.24 20.75 93.12 20.57 92.96 20.41 92.79 20.3 92.65 20.21 92.5 20.15 92.37 20.14 92.1 20.12 91.79 20.31 91.52 20.81 90.62 22.49 89.86 24.3 89.09 26.13 88.49 27.57 87.88 29.02 87.13 30.54 87.11 30.58 87.09 30.62 87.07 30.66 87.04 30.72 87.01 30.78 86.99 30.84 86.97 30.9 86.96 30.95 86.95 31L86.95 31.05 85.92 40.13C85.91 40.2 85.9 40.28 85.87 40.35 85.73 40.75 85.55 41.23 85.4 41.65 85.03 42.68 84.83 43.23 84.72 43.83 84.62 44.36 84.57 45 84.52 46.08L84.87 44.88C84.94 44.62 85.13 44.4 85.4 44.29L85.9 44.08Z" fill="#0087CA" fill-rule="evenodd" clip-rule="evenodd"/><path d="M96.71 12.35 100.75 13.09 100.34 16.98C100.34 17.02 100.33 17.06 100.33 17.1 100.27 17.44 99.98 17.75 99.48 17.92 98.48 18.28 97.01 18.01 96.2 17.32 95.79 16.98 95.63 16.59 95.69 16.25 95.7 16.21 95.71 16.17 95.72 16.13L96.71 12.35Z" fill="#FFFFFF" fill-rule="evenodd" clip-rule="evenodd"/><path d="M96.91 11.45 100.91 12.18C101.39 12.27 101.71 12.71 101.66 13.18L101.26 17.06 101.25 17.13C101.25 17.17 101.24 17.21 101.23 17.26 101.16 17.63 100.98 17.96 100.69 18.24 100.45 18.47 100.15 18.66 99.78 18.79 99.13 19.02 98.34 19.05 97.59 18.92 96.84 18.78 96.12 18.47 95.59 18.02 95.29 17.76 95.07 17.48 94.93 17.18 94.76 16.82 94.71 16.44 94.78 16.08 94.79 16.02 94.8 15.98 94.81 15.95L94.81 15.95C94.81 15.93 94.82 15.9 94.83 15.87L95.82 12.11C95.95 11.63 96.43 11.34 96.91 11.45L96.91 11.45ZM99.74 13.83 97.38 13.4 96.6 16.36 96.59 16.4C96.59 16.4 96.59 16.39 96.6 16.4 96.63 16.46 96.69 16.54 96.79 16.62 97.07 16.86 97.49 17.03 97.93 17.11 98.37 17.19 98.82 17.18 99.17 17.05 99.29 17.01 99.38 16.96 99.43 16.91 99.43 16.91 99.43 16.91 99.43 16.91L99.74 13.83 99.74 13.83ZM99.42 16.92 99.42 16.92 99.42 16.92 99.42 16.92ZM96.58 16.43 96.58 16.43C96.58 16.43 96.58 16.44 96.58 16.43Z" fill="#0087CA" fill-rule="evenodd" clip-rule="evenodd"/><path d="M100.64 2.27C98.46 1.87 96.08 3.24 95.87 5.46L95.42 10.34C95.23 12.39 95.99 14.5 98.31 14.93 100.54 15.34 102.04 13.78 102.64 11.66L103.97 6.95C104.56 4.83 102.86 2.68 100.64 2.27Z" fill="#FFFFFF" fill-rule="evenodd" clip-rule="evenodd"/><path d="M100.47 3.18C100.37 3.16 100.28 3.15 100.18 3.14 99.4 3.07 98.61 3.27 97.98 3.68 97.38 4.07 96.94 4.64 96.81 5.34L96.8 5.37C96.79 5.43 96.78 5.49 96.78 5.55L96.33 10.43C96.25 11.35 96.38 12.27 96.81 12.96 97.14 13.49 97.68 13.89 98.47 14.03 99.24 14.17 99.89 14 100.4 13.61 101.03 13.14 101.48 12.35 101.75 11.42L103.08 6.71C103.1 6.63 103.12 6.56 103.13 6.5 103.25 5.82 103.05 5.13 102.64 4.55 102.21 3.95 101.54 3.48 100.78 3.26 100.67 3.22 100.57 3.2 100.47 3.18L100.47 3.18ZM100.35 1.31C100.5 1.32 100.66 1.34 100.8 1.37 100.97 1.4 101.13 1.44 101.27 1.48 102.44 1.81 103.45 2.54 104.12 3.47 104.81 4.43 105.15 5.61 104.93 6.82 104.9 6.95 104.88 7.08 104.84 7.2L103.51 11.91C103.14 13.21 102.46 14.35 101.5 15.08 100.59 15.77 99.46 16.08 98.13 15.84 96.78 15.59 95.84 14.89 95.25 13.94 94.59 12.89 94.38 11.56 94.5 10.26L94.95 5.39C94.96 5.28 94.98 5.17 94.99 5.05L95 5.01C95.22 3.78 95.97 2.79 96.97 2.14 97.95 1.51 99.16 1.2 100.35 1.31Z" fill="#0087CA" fill-rule="evenodd" clip-rule="evenodd"/><path d="M98.63 8.42 97.28 15.57C97.13 16.37 95.62 17.36 95.06 17.25L92.55 16.82C94.54 13.2 93.84 10.11 94.48 6.75 95.19 3.06 97.24 0.4 100.9 1.02 104.32 1.59 104.84 4.48 104.48 6.43L103.01 6.87 98.63 8.42Z" fill="#A6EDF8" fill-rule="evenodd" clip-rule="evenodd"/><path d="M99.44 9.11 98.19 15.75 98.19 15.75 98.19 15.76C98.18 15.8 98.17 15.83 98.16 15.87 97.99 16.48 97.45 17.08 96.86 17.51 96.22 17.97 95.43 18.25 94.9 18.16 94.12 18.08 93.18 17.87 92.39 17.73 91.89 17.64 91.55 17.17 91.64 16.67 91.66 16.56 91.7 16.45 91.75 16.36 92.96 14.14 93.09 12.07 93.21 10 93.28 8.88 93.35 7.76 93.57 6.58 93.98 4.44 94.83 2.6 96.16 1.41 97.4 0.3 99.03-0.23 101.05 0.11L101.06 0.11 101.06 0.11 101.15 0.13C101.18 0.14 101.2 0.14 101.23 0.15 103.16 0.52 104.3 1.55 104.92 2.79 105.53 4 105.6 5.38 105.41 6.5L105.41 6.51 105.41 6.51 105.4 6.59C105.33 6.96 105.06 7.24 104.72 7.32L103.3 7.74 99.44 9.11 99.44 9.11ZM96.38 15.39 97.72 8.28C97.77 7.95 97.99 7.66 98.33 7.54L102.75 5.97 103.65 5.7C103.7 5.01 103.61 4.25 103.28 3.59 102.9 2.83 102.16 2.19 100.89 1.94L100.74 1.92 100.74 1.92C99.32 1.68 98.21 2.03 97.39 2.77 96.38 3.67 95.73 5.15 95.39 6.92 95.19 7.98 95.12 9.04 95.06 10.1 94.94 12.04 94.83 13.99 93.92 16.12 94.36 16.2 94.82 16.26 95.25 16.35 95.31 16.34 95.53 16.2 95.8 16.01 96.08 15.81 96.33 15.58 96.38 15.43L96.38 15.39 96.38 15.39Z" fill="#0087CA" fill-rule="evenodd" clip-rule="evenodd"/><path d="M115.67 34.35 121.42 31.19 124.37 28.11 118.62 31.26Z" fill="#FFFFFF" fill-rule="evenodd" clip-rule="evenodd"/><path d="M121.86 32 116.11 35.16C115.77 35.35 115.33 35.3 115.03 35.02 114.66 34.67 114.65 34.09 115 33.72L117.92 30.66C117.99 30.58 118.07 30.51 118.17 30.46L123.92 27.3 123.92 27.3C124.26 27.11 124.7 27.16 125 27.44 125.37 27.79 125.38 28.37 125.03 28.74L122.14 31.77C122.06 31.86 121.97 31.94 121.86 32Z" fill="#0087CA" fill-rule="evenodd" clip-rule="evenodd"/></g><g><path d="M210.31 91.31 219.35 93.47 235.25 88.73C240.68 91.86 246.1 95 251.53 98.13L243.32 107.31 247.07 112.53 264.11 115.67C264.11 120.09 264.11 124.52 264.11 128.94L247.07 132.08 243.33 137.3 251.54 146.48C246.11 149.61 240.69 152.75 235.26 155.88L219.36 151.14 210.32 153.3 204.88 163.14C197.22 163.14 189.56 163.14 181.9 163.14L176.46 153.3 167.42 151.14 151.51 155.88C146.08 152.75 140.66 149.61 135.23 146.48L143.44 137.3 139.7 132.08 122.66 128.94C122.66 124.52 122.66 120.09 122.66 115.67L139.7 112.53 143.44 107.31 135.23 98.13C140.66 95 146.08 91.87 151.51 88.73L167.42 93.47 176.46 91.31 181.9 81.47C189.56 81.47 197.22 81.47 204.88 81.47L210.31 91.31Z" fill-rule="evenodd" clip-rule="evenodd" opacity="0.15"/><path d="M210.38 91.22 219.35 93.36 235.27 88.62C240.75 91.77 246.22 94.94 251.7 98.1L243.46 107.32 247.13 112.44 264.22 115.59 264.22 129.03 247.13 132.18 243.46 137.3 251.7 146.52C246.22 149.68 240.74 152.84 235.27 156.01L219.35 151.27 210.38 153.42 204.93 163.27 181.82 163.27 176.37 153.42 167.4 151.28 151.48 156.02C146.01 152.85 140.53 149.69 135.05 146.53L143.29 137.31 139.62 132.19 122.54 129.04 122.54 115.6 139.63 112.45 143.3 107.33 135.06 98.11 151.49 88.62 167.41 93.36 176.38 91.21 181.83 81.36 204.94 81.36 210.38 91.22 210.38 91.22ZM219.33 93.58 210.24 91.41 204.81 81.59 181.95 81.59 176.52 91.41C173.48 92.14 170.44 92.87 167.41 93.59L151.52 88.86 135.39 98.17 143.57 107.32 139.75 112.64 122.75 115.77 122.75 128.87 139.75 132C141.03 133.77 142.3 135.55 143.57 137.32L135.39 146.47 151.52 155.78 167.41 151.05C170.45 151.76 173.49 152.5 176.52 153.23L181.95 163.05 204.81 163.05 210.24 153.23C213.28 152.5 216.31 151.77 219.35 151.05L235.24 155.78 251.37 146.47 243.19 137.32C244.46 135.55 245.74 133.77 247.01 132L264.01 128.87 264.01 115.77 247.01 112.64C245.74 110.86 244.47 109.09 243.19 107.32L251.37 98.17 235.24 88.86 219.35 93.59 219.33 93.58Z" fill-rule="evenodd" clip-rule="evenodd" opacity="0.15"/><path d="M245.1 73.28 245.1 97.89 236.9 107.07 236.9 82.47Z" fill="#0087CA" fill-rule="evenodd" clip-rule="evenodd"/><path d="M246.03 73.28 246.03 97.88C246.03 98.15 245.92 98.39 245.74 98.55L237.59 107.67C237.25 108.05 236.67 108.08 236.29 107.74 236.09 107.56 235.98 107.31 235.98 107.06L235.98 107.06 235.98 82.46C235.98 82.19 236.09 81.95 236.27 81.79L244.42 72.67C244.76 72.29 245.34 72.26 245.72 72.6 245.92 72.78 246.02 73.03 246.03 73.28L246.03 73.28 246.03 73.28ZM244.18 97.54 244.18 75.7 237.82 82.82 237.82 104.66 244.18 97.54Z" fill="#0087CA" fill-rule="evenodd" clip-rule="evenodd"/><path d="M257.69 104.1 257.69 128.7 240.64 131.84 240.64 107.24Z" fill="#00CEF0" fill-rule="evenodd" clip-rule="evenodd"/><path d="M258.61 104.1 258.61 128.7C258.61 129.18 258.25 129.57 257.78 129.62L240.81 132.75C240.31 132.84 239.83 132.51 239.74 132.01 239.73 131.95 239.73 131.9 239.72 131.84L239.72 131.84 239.72 107.24C239.72 106.76 240.08 106.37 240.55 106.32L257.52 103.19C258.02 103.1 258.5 103.43 258.59 103.93 258.6 103.99 258.6 104.04 258.61 104.1L258.61 104.1 258.61 104.1ZM256.76 127.94 256.76 105.2 241.56 108 241.56 130.73 256.76 127.94Z" fill="#0087CA" fill-rule="evenodd" clip-rule="evenodd"/><path d="M240.64 107.24 240.64 131.84 236.9 137.06 236.9 112.46Z" fill="#207CEA" fill-rule="evenodd" clip-rule="evenodd"/><path d="M241.57 107.24 241.57 131.84C241.57 132.07 241.49 132.28 241.35 132.44L237.65 137.6C237.35 138.01 236.78 138.11 236.37 137.81 236.12 137.63 235.99 137.35 235.99 137.06L235.99 137.06 235.99 112.46C235.99 112.23 236.07 112.02 236.21 111.86L239.91 106.7C240.21 106.29 240.78 106.19 241.19 106.49 241.43 106.67 241.56 106.95 241.57 107.24L241.57 107.24 241.57 107.24ZM239.72 131.55 239.72 110.1 237.82 112.75 237.82 134.2 239.72 131.55Z" fill="#0087CA" fill-rule="evenodd" clip-rule="evenodd"/><path d="M245.1 121.64 245.1 146.25 228.83 155.64 228.83 131.04Z" fill="#0087CA" fill-rule="evenodd" clip-rule="evenodd"/><path d="M246.03 121.64 246.03 146.24C246.03 146.61 245.81 146.93 245.49 147.08L229.29 156.44C228.85 156.69 228.29 156.54 228.04 156.1 227.96 155.96 227.92 155.8 227.92 155.64L227.92 155.64 227.92 131.04C227.92 130.67 228.13 130.36 228.44 130.21L244.66 120.84C245.1 120.59 245.66 120.74 245.92 121.17 245.99 121.33 246.03 121.49 246.03 121.64L246.03 121.64 246.03 121.64ZM244.18 145.72 244.18 123.24 229.75 131.57 229.75 154.05 244.18 145.72Z" fill="#0087CA" fill-rule="evenodd" clip-rule="evenodd"/><path d="M228.83 131.04 228.83 155.64 212.92 150.91 212.92 126.3Z" fill="#00CEF0" fill-rule="evenodd" clip-rule="evenodd"/><path d="M229.75 131.04 229.75 155.64C229.75 156.15 229.34 156.56 228.83 156.56 228.72 156.56 228.61 156.54 228.52 156.51L212.67 151.79C212.27 151.67 212.01 151.3 212.01 150.91L212.01 150.91 212.01 126.31C212.01 125.8 212.42 125.39 212.93 125.39 213.04 125.39 213.15 125.41 213.24 125.44L229.09 130.16C229.49 130.28 229.75 130.65 229.75 131.04L229.75 131.04 229.75 131.04ZM227.9 154.41 227.9 131.73 213.84 127.54 213.84 150.22 227.9 154.41Z" fill="#0087CA" fill-rule="evenodd" clip-rule="evenodd"/><path d="M212.92 126.3 212.92 150.91 203.88 153.07 203.88 128.47Z" fill="#0087CA" fill-rule="evenodd" clip-rule="evenodd"/><path d="M213.84 126.3 213.84 150.9C213.84 151.37 213.5 151.75 213.05 151.81L204.09 153.95C203.6 154.07 203.1 153.76 202.98 153.27 202.96 153.2 202.95 153.13 202.95 153.06L202.95 153.06 202.95 128.46C202.95 127.99 203.29 127.61 203.74 127.55L212.7 125.41C213.19 125.29 213.69 125.6 213.81 126.09 213.83 126.16 213.84 126.23 213.84 126.3L213.84 126.3 213.84 126.3ZM212 150.18 212 127.47 204.8 129.19 204.8 151.9 212 150.18Z" fill="#0087CA" fill-rule="evenodd" clip-rule="evenodd"/><path d="M203.88 128.47 203.88 153.07 198.44 162.91 198.44 138.3Z" fill="#0087CA" fill-rule="evenodd" clip-rule="evenodd"/><path d="M204.8 128.47 204.8 153.07C204.8 153.25 204.75 153.42 204.66 153.57L199.25 163.36C199 163.81 198.44 163.97 198 163.72 197.7 163.55 197.52 163.24 197.52 162.91L197.52 162.91 197.52 138.31C197.52 138.13 197.57 137.96 197.66 137.81L203.07 128.02C203.32 127.57 203.87 127.41 204.32 127.66 204.63 127.83 204.8 128.14 204.8 128.47L204.8 128.47 204.8 128.47ZM202.96 152.83 202.96 132.03 199.36 138.53 199.36 159.33 202.96 152.83Z" fill="#0087CA" fill-rule="evenodd" clip-rule="evenodd"/><rect x="175.45" y="138.3" width="22.98" height="24.6" fill="#00CEF0" fill-rule="evenodd" clip-rule="evenodd"/><path d="M199.36 138.3 199.36 162.9C199.36 163.41 198.95 163.82 198.44 163.82L175.46 163.82C174.95 163.82 174.54 163.41 174.54 162.9L174.54 138.3C174.54 137.79 174.95 137.38 175.46 137.38L198.44 137.38C198.95 137.38 199.36 137.8 199.36 138.3L199.36 138.3ZM197.52 161.98 197.52 139.22 176.38 139.22 176.38 161.98 197.52 161.98Z" fill="#0087CA" fill-rule="evenodd" clip-rule="evenodd"/><path d="M175.45 138.3 175.45 162.91 170.01 153.07 160.97 150.91 160.97 126.3 170.01 128.46Z" fill="#A6EDF8" fill-rule="evenodd" clip-rule="evenodd"/><path d="M176.37 138.36 176.37 162.9C176.37 163.41 175.96 163.82 175.45 163.82 175.1 163.82 174.8 163.63 174.64 163.34L174.64 163.34 169.4 153.86 160.76 151.79C160.34 151.69 160.05 151.31 160.05 150.9L160.05 126.3C160.05 125.79 160.46 125.38 160.97 125.38 161.05 125.38 161.13 125.39 161.21 125.41L170.22 127.57C170.48 127.63 170.69 127.8 170.81 128.02L170.81 128.02 176.25 137.86C176.35 138.02 176.38 138.19 176.37 138.36L176.37 138.36ZM174.53 159.34 174.53 138.54 169.4 129.26 161.89 127.46 161.89 150.17 170.16 152.15C170.43 152.2 170.67 152.36 170.82 152.61L174.53 159.34Z" fill="#0087CA" fill-rule="evenodd" clip-rule="evenodd"/><path d="M160.97 126.3 160.97 150.91 145.07 155.64 145.07 131.04Z" fill="#0087CA" fill-rule="evenodd" clip-rule="evenodd"/><path d="M161.89 126.3 161.89 150.9C161.89 151.34 161.59 151.7 161.18 151.8L145.32 156.52C144.83 156.67 144.32 156.39 144.17 155.9 144.14 155.81 144.13 155.72 144.13 155.64L144.13 155.64 144.13 131.04C144.13 130.6 144.43 130.24 144.84 130.14L160.7 125.42C161.19 125.27 161.7 125.55 161.85 126.04 161.88 126.13 161.89 126.22 161.89 126.3L161.89 126.3 161.89 126.3ZM160.05 150.22 160.05 127.54 145.99 131.73 145.99 154.41 160.05 150.22Z" fill="#0087CA" fill-rule="evenodd" clip-rule="evenodd"/><path d="M145.07 131.04 145.07 155.64C139.64 152.51 134.22 149.37 128.79 146.24L128.79 131.01 116.21 128.69 116.21 104.09 133.25 107.23 137 112.45 137 126.37C139.69 127.94 142.38 129.49 145.07 131.04Z" fill="#A6EDF8" fill-rule="evenodd" clip-rule="evenodd"/><path d="M145.99 131.1 145.99 155.65C145.99 156.16 145.58 156.57 145.07 156.57 144.89 156.57 144.73 156.52 144.59 156.43L128.34 147.05C128.04 146.88 127.88 146.57 127.88 146.25L127.88 146.25 127.88 131.79 116.06 129.61C115.6 129.53 115.29 129.12 115.31 128.67L115.31 104.1C115.31 103.59 115.72 103.18 116.23 103.18 116.29 103.18 116.34 103.19 116.4 103.19L133.44 106.33C133.68 106.37 133.89 106.51 134.02 106.7L134.02 106.7 137.77 111.92C137.9 112.1 137.96 112.32 137.94 112.53L137.94 125.85 145.55 130.25C145.84 130.43 146.01 130.76 145.99 131.1L145.99 131.1ZM144.15 154.05 144.15 131.57 136.54 127.17 136.54 127.17C136.27 127.01 136.08 126.71 136.08 126.38L136.08 112.76 132.72 108.07 117.13 105.2 117.13 127.93 128.88 130.1C129.35 130.15 129.71 130.54 129.71 131.02L129.71 145.72 144.15 154.05Z" fill="#0087CA" fill-rule="evenodd" clip-rule="evenodd"/><path d="M136.99 82.47 136.99 107.07 128.79 97.89 128.79 73.28Z" fill="#A6EDF8" fill-rule="evenodd" clip-rule="evenodd"/><path d="M137.92 82.47 137.92 107.07C137.92 107.58 137.51 107.99 137 107.99 136.7 107.99 136.43 107.84 136.26 107.62L128.11 98.5C127.95 98.32 127.88 98.11 127.88 97.89L127.88 97.89 127.88 73.29C127.88 72.78 128.29 72.37 128.8 72.37 129.1 72.37 129.37 72.52 129.54 72.74L137.69 81.86C137.84 82.03 137.91 82.25 137.92 82.47L137.92 82.47 137.92 82.47ZM136.07 104.66 136.07 82.81 129.71 75.69 129.71 97.53 136.07 104.66Z" fill="#0087CA" fill-rule="evenodd" clip-rule="evenodd"/><path d="M172.4 97.46 172.4 122.06C172.46 120.62 172.9 119.54 173.83 118.42 176.88 114.76 183.13 113.54 187.69 113.67 191.92 113.79 197.72 115.2 200.34 118.79 201.1 119.83 201.43 120.79 201.48 122.06L201.48 97.46C201.38 92.84 195.77 90.38 191.93 89.57 186.59 88.44 179.13 89.12 174.87 92.76 173.6 93.85 172.55 95.32 172.4 97.02L172.4 97.46Z" fill="#0087CA" fill-rule="evenodd" clip-rule="evenodd"/><path d="M173.32 97.46 173.32 117.61C174.8 115.95 176.87 114.78 179.13 114 181.96 113.03 185.11 112.68 187.72 112.75 190.17 112.82 193.11 113.3 195.72 114.36 197.6 115.12 199.31 116.18 200.57 117.6L200.57 97.46 200.57 97.41C200.51 95.78 199.61 94.45 198.34 93.4 196.48 91.86 193.85 90.91 191.76 90.47 189.01 89.89 185.67 89.81 182.53 90.39 179.85 90.89 177.33 91.88 175.48 93.46 174.88 93.98 174.33 94.58 173.94 95.26 173.61 95.83 173.39 96.44 173.33 97.1L173.33 97.13 173.32 97.46 173.32 97.46 173.32 97.46ZM173.32 122.03 173.32 122.06C173.32 122.57 172.91 122.98 172.4 122.98 171.89 122.98 171.48 122.57 171.48 122.06L171.48 97.46 171.48 97.46 171.5 97.06C171.5 97.02 171.5 96.99 171.5 96.95 171.58 96.01 171.89 95.14 172.35 94.34 172.85 93.47 173.54 92.7 174.29 92.06 176.4 90.26 179.22 89.14 182.19 88.58 185.57 87.95 189.17 88.04 192.13 88.66 194.45 89.15 197.39 90.22 199.51 91.97 201.16 93.33 202.33 95.1 202.4 97.34 202.4 97.38 202.41 97.41 202.41 97.45L202.41 122.05 202.41 122.05C202.41 122.54 202.02 122.95 201.53 122.97 201.02 122.99 200.59 122.6 200.57 122.09L200.57 122.05 200.57 122.05 200.57 122.01C200.54 121.51 200.47 121.07 200.33 120.67L200.32 120.63C200.17 120.19 199.94 119.77 199.61 119.32 198.55 117.87 196.9 116.81 195.04 116.06 192.64 115.09 189.93 114.65 187.67 114.58 185.25 114.51 182.34 114.84 179.72 115.73 177.65 116.44 175.78 117.5 174.54 118.99 174.13 119.48 173.84 119.95 173.64 120.44 173.46 120.93 173.35 121.44 173.32 122.03Z" fill="#0087CA" fill-rule="evenodd" clip-rule="evenodd"/><path d="M203.88 66.46 212.92 68.62 228.82 63.88C234.25 67.01 239.67 70.15 245.1 73.28L236.89 82.46 240.64 87.68 257.68 90.82C257.68 95.24 257.68 99.67 257.68 104.09L240.64 107.23 236.9 112.45 245.11 121.63C239.68 124.76 234.26 127.9 228.83 131.03L212.93 126.29 203.89 128.45 198.45 138.29C190.79 138.29 183.13 138.29 175.47 138.29L170.03 128.45 160.99 126.29 145.08 131.03C139.65 127.9 134.23 124.76 128.8 121.63L137.01 112.45 133.27 107.23 116.23 104.09C116.23 99.67 116.23 95.24 116.23 90.82L133.27 87.68 137.01 82.46 128.8 73.28C134.23 70.15 139.65 67.01 145.08 63.88L160.99 68.62 170.03 66.46 175.47 56.62C183.13 56.62 190.79 56.62 198.45 56.62L203.88 66.46 203.88 66.46ZM186.95 89.06C178.92 89.06 172.4 92.82 172.4 97.46 172.4 102.1 178.91 105.86 186.95 105.86 194.98 105.86 201.5 102.1 201.5 97.46 201.49 92.83 194.98 89.06 186.95 89.06Z" fill="#F8F9FD" fill-rule="evenodd" clip-rule="evenodd"/><path d="M204.49 65.66 212.89 67.67 228.56 63C228.84 62.92 229.12 62.97 229.34 63.12L237.42 67.78 237.42 67.78 245.56 72.48C246 72.73 246.15 73.3 245.89 73.74 245.85 73.81 245.8 73.88 245.74 73.93L238.06 82.52 241.16 86.84 257.84 89.91C258.28 89.99 258.59 90.38 258.59 90.81L258.59 90.81 258.59 104.08C258.59 104.56 258.23 104.95 257.76 105L241.16 108.06 238.06 112.38 245.78 121.01C246.12 121.39 246.09 121.97 245.71 122.31 245.65 122.36 245.6 122.4 245.53 122.43L229.27 131.82C229.04 131.95 228.78 131.97 228.55 131.9L228.55 131.9 212.88 127.23 204.48 129.24 199.23 138.72C199.06 139.03 198.75 139.2 198.42 139.2L198.42 139.2 175.44 139.2C175.07 139.2 174.75 138.98 174.61 138.67L169.39 129.23 160.99 127.22 145.32 131.89C145.05 131.97 144.78 131.92 144.56 131.78L136.46 127.1 136.41 127.07 128.32 122.4C127.88 122.15 127.73 121.59 127.98 121.15 128.01 121.09 128.05 121.04 128.09 120.99L135.8 112.36 132.7 108.04 116.04 105C115.6 104.92 115.29 104.53 115.29 104.1L115.29 104.1 115.29 90.83C115.29 90.35 115.65 89.96 116.12 89.91L132.72 86.85 135.82 82.53 128.11 73.9C127.77 73.52 127.8 72.94 128.18 72.6 128.23 72.56 128.28 72.52 128.33 72.49L128.33 72.49 144.61 63.09C144.84 62.96 145.1 62.94 145.33 63.01L161 67.67 169.4 65.66 174.64 56.18C174.81 55.88 175.12 55.7 175.45 55.7L175.45 55.7 198.43 55.7C198.8 55.7 199.12 55.92 199.26 56.23L204.49 65.66 204.49 65.66ZM212.71 69.52 203.73 67.37C203.46 67.32 203.22 67.16 203.08 66.9L197.9 57.54 176 57.54 170.82 66.9 170.82 66.9C170.7 67.12 170.49 67.29 170.23 67.35L161.26 69.5C161.09 69.56 160.9 69.56 160.72 69.51L145.19 64.88 130.23 73.52 137.63 81.8C137.96 82.11 138.02 82.63 137.75 83.01L134 88.22 134 88.22C133.87 88.41 133.66 88.54 133.42 88.59L117.13 91.59 117.13 103.33 133.35 106.32C133.6 106.35 133.84 106.48 134 106.7L137.75 111.92 137.75 111.92C138 112.26 137.98 112.74 137.69 113.07L130.24 121.41 137.35 125.52 137.4 125.55 145.19 130.05 160.72 125.42 160.72 125.42C160.87 125.37 161.03 125.37 161.19 125.41L170.17 127.56C170.44 127.6 170.68 127.77 170.82 128.02L176 137.38 197.9 137.38 203.08 128.02 203.08 128.02C203.2 127.8 203.41 127.63 203.67 127.57L212.64 125.42C212.81 125.37 213 125.36 213.18 125.41L228.71 130.04 243.67 121.41 236.23 113.09C235.93 112.78 235.89 112.29 236.15 111.92L239.88 106.72C240.01 106.52 240.22 106.38 240.48 106.33L256.77 103.33 256.77 91.59 240.49 88.59C240.26 88.55 240.05 88.42 239.91 88.22L236.15 83C235.9 82.66 235.92 82.18 236.21 81.85L243.66 73.51 236.5 69.37 236.5 69.37 228.71 64.87 213.18 69.5 213.18 69.5C213.03 69.55 212.87 69.56 212.71 69.52L212.71 69.52ZM186.95 88.14C182.77 88.14 178.97 89.13 176.2 90.73 173.28 92.41 171.48 94.79 171.48 97.47 171.48 100.12 173.26 102.49 176.15 104.17L176.2 104.2C178.97 105.8 182.77 106.79 186.95 106.79 191.13 106.79 194.93 105.8 197.69 104.2 200.61 102.51 202.42 100.14 202.42 97.46 202.42 94.79 200.61 92.41 197.7 90.72L197.7 90.72 197.7 90.72C194.92 89.13 191.12 88.14 186.95 88.14L186.95 88.14ZM196.77 92.32C194.27 90.88 190.8 89.99 186.94 89.99 183.09 89.99 179.61 90.88 177.12 92.32 174.77 93.67 173.32 95.5 173.32 97.46 173.32 99.41 174.75 101.23 177.07 102.58L177.12 102.61C179.62 104.05 183.09 104.94 186.94 104.94 190.8 104.94 194.27 104.05 196.77 102.61 199.12 101.26 200.57 99.44 200.57 97.47 200.57 95.5 199.12 93.68 196.77 92.32L196.77 92.32Z" fill="#0087CA" fill-rule="evenodd" clip-rule="evenodd"/><path d="M186.95 73.98C209.41 73.98 227.63 84.49 227.63 97.46 227.63 110.43 209.42 120.94 186.95 120.94 164.49 120.94 146.28 110.43 146.28 97.46 146.27 84.49 164.48 73.98 186.95 73.98L186.95 73.98ZM186.95 89.06C178.92 89.06 172.4 92.82 172.4 97.46 172.4 102.1 178.91 105.86 186.95 105.86 194.98 105.86 201.5 102.1 201.5 97.46 201.49 92.83 194.98 89.06 186.95 89.06Z" fill="#00CEF0" fill-rule="evenodd" clip-rule="evenodd"/><path d="M186.95 73.06C198.34 73.06 208.67 75.74 216.17 80.06L216.17 80.06 216.17 80.06C223.81 84.47 228.54 90.62 228.54 97.46 228.54 104.3 223.81 110.45 216.16 114.86 208.66 119.19 198.33 121.86 186.94 121.86 175.55 121.86 165.21 119.18 157.72 114.86L157.67 114.83C150.06 110.42 145.35 104.28 145.35 97.46 145.35 90.62 150.08 84.47 157.72 80.06 165.22 75.73 175.55 73.06 186.95 73.06L186.95 73.06ZM215.25 81.65C208.03 77.48 198.02 74.9 186.95 74.9 175.88 74.9 165.88 77.48 158.65 81.65 151.57 85.74 147.2 91.33 147.2 97.46 147.2 103.58 151.56 109.16 158.6 113.24L158.65 113.27C165.88 117.44 175.88 120.02 186.95 120.02 198.02 120.02 208.03 117.44 215.25 113.27 222.32 109.19 226.7 103.59 226.7 97.46 226.7 91.33 222.32 85.74 215.25 81.65L215.25 81.65 215.25 81.65ZM186.95 88.14C182.77 88.14 178.97 89.13 176.2 90.73 173.28 92.41 171.48 94.79 171.48 97.47 171.48 100.12 173.26 102.49 176.15 104.17L176.2 104.2C178.97 105.8 182.77 106.79 186.95 106.79 191.13 106.79 194.93 105.8 197.69 104.2 200.61 102.51 202.42 100.14 202.42 97.46 202.42 94.79 200.61 92.41 197.7 90.72L197.7 90.72 197.7 90.72C194.92 89.13 191.12 88.14 186.95 88.14L186.95 88.14ZM196.77 92.32C194.27 90.88 190.8 89.99 186.94 89.99 183.09 89.99 179.61 90.88 177.12 92.32 174.77 93.67 173.32 95.5 173.32 97.46 173.32 99.41 174.75 101.23 177.07 102.58L177.12 102.61C179.62 104.05 183.09 104.94 186.94 104.94 190.8 104.94 194.27 104.05 196.77 102.61 199.12 101.26 200.57 99.44 200.57 97.47 200.57 95.5 199.12 93.68 196.77 92.32L196.77 92.32Z" fill="#0087CA" fill-rule="evenodd" clip-rule="evenodd"/><path d="M186.95 115.29C204.01 115.29 217.83 107.31 217.83 97.46 217.83 87.61 204 79.63 186.95 79.63 169.89 79.63 156.07 87.61 156.07 97.46 156.06 107.31 169.89 115.29 186.95 115.29L186.95 115.29ZM186.95 89.06C194.98 89.06 201.5 92.82 201.5 97.46 201.5 102.1 194.99 105.86 186.95 105.86 178.92 105.86 172.4 102.1 172.4 97.46 172.4 92.83 178.91 89.06 186.95 89.06Z" fill="#A6EDF8" fill-rule="evenodd" clip-rule="evenodd"/><path d="M186.95 114.37C195.32 114.37 202.88 112.42 208.33 109.27 213.63 106.21 216.91 102.03 216.91 97.46 216.91 92.89 213.63 88.71 208.33 85.65L208.33 85.65 208.33 85.65C202.88 82.5 195.32 80.55 186.95 80.55 178.58 80.55 171.03 82.5 165.57 85.65 160.27 88.71 156.98 92.89 156.98 97.46 156.98 102.03 160.26 106.21 165.57 109.27 171.02 112.42 178.58 114.37 186.95 114.37L186.95 114.37ZM209.24 110.87C203.52 114.17 195.63 116.22 186.94 116.22 178.25 116.22 170.37 114.17 164.64 110.87 158.77 107.48 155.13 102.74 155.13 97.47 155.13 92.19 158.76 87.46 164.64 84.07 170.36 80.76 178.25 78.72 186.94 78.72 195.63 78.72 203.52 80.76 209.24 84.07L209.24 84.07C215.12 87.46 218.75 92.2 218.75 97.47 218.75 102.74 215.12 107.48 209.24 110.87L209.24 110.87ZM186.95 88.14C191.13 88.14 194.93 89.13 197.69 90.73L197.69 90.73 197.69 90.73C200.61 92.41 202.41 94.79 202.41 97.47 202.41 100.14 200.6 102.52 197.68 104.21 194.91 105.81 191.11 106.8 186.94 106.8 182.76 106.8 178.96 105.81 176.19 104.21L176.14 104.18C173.25 102.5 171.47 100.13 171.47 97.48 171.47 94.81 173.27 92.43 176.19 90.74 178.97 89.13 182.77 88.14 186.95 88.14L186.95 88.14ZM196.77 92.32 196.77 92.32C199.12 93.68 200.57 95.5 200.57 97.46 200.57 99.43 199.12 101.25 196.77 102.6 194.27 104.04 190.8 104.93 186.94 104.93 183.09 104.93 179.61 104.04 177.12 102.6L177.07 102.57C174.75 101.22 173.32 99.41 173.32 97.45 173.32 95.49 174.77 93.66 177.12 92.31 179.62 90.87 183.09 89.98 186.94 89.98 190.8 89.99 194.28 90.88 196.77 92.32Z" fill="#0087CA" fill-rule="evenodd" clip-rule="evenodd"/><path d="M129.71 146.25C129.71 146.76 129.3 147.17 128.79 147.17 128.28 147.17 127.87 146.76 127.87 146.25L127.87 121.65C127.87 121.14 128.28 120.73 128.79 120.73 129.3 120.73 129.71 121.14 129.71 121.65L129.71 146.25Z" fill="#0087CA" fill-rule="evenodd" clip-rule="evenodd"/><path d="M170.93 153.07C170.93 153.58 170.52 153.99 170.01 153.99 169.5 153.99 169.09 153.58 169.09 153.07L169.09 128.47C169.09 127.96 169.5 127.55 170.01 127.55 170.52 127.55 170.93 127.96 170.93 128.47L170.93 153.07Z" fill="#0087CA" fill-rule="evenodd" clip-rule="evenodd"/></g><path d="M80.9 140.91 88.59 142.75 102.11 138.72C106.73 141.38 111.34 144.05 115.96 146.71L108.98 154.52 112.17 158.96 126.66 161.63C126.66 165.39 126.66 169.15 126.66 172.92L112.17 175.59 108.99 180.03 115.97 187.84C111.35 190.5 106.74 193.17 102.12 195.83L88.6 191.8 80.91 193.64 76.28 202.01C69.76 202.01 63.25 202.01 56.73 202.01L52.1 193.64 44.41 191.8 30.88 195.83C26.27 193.17 21.65 190.5 17.04 187.84L24.02 180.03 20.84 175.59 6.35 172.92C6.35 169.16 6.35 165.4 6.35 161.64L20.84 158.97 24.02 154.53 17.04 146.72C21.65 144.06 26.27 141.39 30.88 138.73L44.41 142.76 52.1 140.92 56.73 132.55C63.25 132.55 69.76 132.55 76.28 132.55L80.9 140.91Z" fill-rule="evenodd" clip-rule="evenodd" opacity="0.15"/><path d="M18.86 157.17C9.92 157.17 2.67 159.77 2.67 162.97 2.67 166.17 9.92 168.77 18.86 168.77 27.8 168.77 35.05 166.17 35.05 162.97 35.05 159.76 27.8 157.17 18.86 157.17Z" fill-rule="evenodd" clip-rule="evenodd" opacity="0.15"/><path d="M29.69 113.37 31.88 111.91 35.15 114.69 34.97 115.72 37.44 118.55C36.62 119.12 35.93 119.49 33.75 118.01 31.91 116.77 31.61 115.83 29.69 113.37Z" fill="#FFFFFF" fill-rule="evenodd" clip-rule="evenodd"/><path d="M29.18 112.61 31.36 111.15C31.73 110.9 32.21 110.96 32.51 111.25L35.73 113.99C35.99 114.21 36.09 114.54 36.04 114.84L36.04 114.84 35.94 115.44 38.12 117.93C38.45 118.31 38.42 118.89 38.03 119.23 38 119.25 37.97 119.27 37.95 119.29 37.4 119.67 36.89 119.98 36.06 119.95 35.35 119.92 34.48 119.61 33.22 118.76 31.77 117.78 31.21 117 30.26 115.67 29.91 115.18 29.5 114.61 28.96 113.92 28.65 113.52 28.72 112.94 29.12 112.63L29.18 112.61 29.18 112.61ZM31.81 113.06 31.02 113.59C31.3 113.97 31.55 114.31 31.77 114.61 32.6 115.77 33.09 116.45 34.27 117.25 34.96 117.72 35.44 117.97 35.8 118.07L34.32 116.37C34.12 116.17 34.01 115.87 34.06 115.57L34.15 115.05 31.81 113.06Z" fill="#0087CA" fill-rule="evenodd" clip-rule="evenodd"/><path d="M13.18 158.15C12.7 157.87 12.46 157.51 12.46 157.15 12.46 156.79 12.7 156.43 13.18 156.15 13.66 155.87 14.29 155.74 14.91 155.74 15.54 155.74 16.17 155.88 16.64 156.15L21.2 158.78C21.68 159.06 21.92 159.42 21.92 159.78 21.92 160.14 21.68 160.5 21.2 160.78 20.72 161.06 20.09 161.2 19.47 161.2 18.84 161.2 18.21 161.06 17.74 160.78L13.18 158.15Z" fill="#FFFFFF" fill-rule="evenodd" clip-rule="evenodd"/><path d="M12.72 158.94C12.36 158.73 12.09 158.49 11.9 158.22 11.88 158.19 11.86 158.17 11.85 158.14 11.64 157.83 11.54 157.49 11.54 157.14 11.54 156.77 11.66 156.4 11.9 156.06L11.9 156.06C12.09 155.79 12.36 155.55 12.72 155.34L12.72 155.34C13.03 155.16 13.39 155.03 13.76 154.94 14.14 154.85 14.53 154.8 14.91 154.8 15.29 154.8 15.68 154.85 16.06 154.94 16.44 155.03 16.79 155.17 17.1 155.34L17.15 155.37 21.66 157.97C22.02 158.18 22.29 158.42 22.48 158.69 22.5 158.72 22.52 158.74 22.53 158.77 22.73 159.08 22.84 159.42 22.84 159.77 22.84 160.14 22.72 160.51 22.48 160.85L22.48 160.85C22.29 161.12 22.01 161.36 21.66 161.57L21.6 161.6C21.3 161.76 20.97 161.89 20.62 161.97 20.24 162.06 19.85 162.11 19.47 162.11 19.09 162.11 18.7 162.06 18.32 161.97 17.95 161.88 17.59 161.75 17.28 161.57L12.72 158.94 12.72 158.94ZM13.4 157.15C13.45 157.22 13.53 157.28 13.64 157.35L18.2 159.98C18.36 160.07 18.54 160.14 18.75 160.19 18.97 160.24 19.22 160.27 19.48 160.27 19.74 160.27 19.99 160.24 20.21 160.19 20.4 160.14 20.57 160.08 20.72 160L20.76 159.98C20.88 159.91 20.96 159.85 21 159.78L21 159.78 21 159.78 20.99 159.77C20.94 159.7 20.86 159.64 20.75 159.57L16.24 156.97 16.19 156.94C16.03 156.85 15.85 156.78 15.64 156.73 15.42 156.68 15.17 156.65 14.91 156.65 14.65 156.65 14.4 156.68 14.18 156.73 13.98 156.78 13.79 156.85 13.63 156.94L13.63 156.94 13.63 156.94C13.52 157 13.44 157.07 13.39 157.14L13.39 157.14 13.4 157.15 13.4 157.15Z" fill="#0087CA" fill-rule="evenodd" clip-rule="evenodd"/><path d="M3.56 163.58C3.08 163.3 2.84 162.94 2.84 162.58 2.84 162.22 3.08 161.86 3.56 161.58 4.04 161.3 4.67 161.17 5.29 161.17 5.92 161.17 6.55 161.31 7.02 161.58L11.58 164.21C12.06 164.49 12.3 164.85 12.3 165.21 12.3 165.57 12.06 165.93 11.58 166.21 11.1 166.49 10.47 166.62 9.85 166.62 9.22 166.62 8.59 166.48 8.12 166.21L3.56 163.58Z" fill="#FFFFFF" fill-rule="evenodd" clip-rule="evenodd"/><path d="M3.11 164.38C2.75 164.17 2.48 163.93 2.29 163.66 2.27 163.63 2.25 163.61 2.24 163.58 2.04 163.27 1.93 162.93 1.93 162.58 1.93 162.21 2.05 161.84 2.29 161.5L2.29 161.5C2.48 161.23 2.76 160.99 3.11 160.78L3.11 160.78C3.42 160.6 3.78 160.47 4.15 160.38 4.53 160.29 4.92 160.24 5.3 160.24 5.68 160.24 6.07 160.29 6.45 160.38 6.83 160.47 7.18 160.61 7.49 160.78L7.54 160.81 12.05 163.41C12.41 163.62 12.68 163.86 12.87 164.13 12.89 164.16 12.91 164.18 12.92 164.21 13.12 164.52 13.23 164.86 13.23 165.21 13.23 165.58 13.11 165.95 12.87 166.29L12.87 166.29C12.68 166.56 12.4 166.8 12.05 167.01L11.99 167.04C11.69 167.2 11.36 167.33 11.01 167.41 10.63 167.5 10.24 167.55 9.86 167.55 9.48 167.55 9.09 167.5 8.71 167.41 8.34 167.32 7.98 167.19 7.67 167.01L3.11 164.38 3.11 164.38ZM3.78 162.58C3.83 162.65 3.91 162.71 4.02 162.78L8.58 165.41C8.74 165.5 8.92 165.57 9.13 165.62 9.35 165.67 9.6 165.7 9.86 165.7 10.12 165.7 10.37 165.67 10.59 165.62 10.78 165.58 10.95 165.51 11.1 165.43L11.14 165.41C11.26 165.34 11.34 165.28 11.38 165.21L11.38 165.21 11.38 165.21 11.37 165.2C11.32 165.13 11.24 165.06 11.13 165L6.62 162.4 6.57 162.37C6.41 162.28 6.23 162.21 6.02 162.16 5.8 162.11 5.55 162.08 5.29 162.08 5.03 162.08 4.78 162.11 4.56 162.16 4.36 162.21 4.17 162.28 4.01 162.37L4.01 162.37 4.01 162.37C3.9 162.43 3.82 162.5 3.77 162.57L3.77 162.57 3.78 162.58 3.78 162.58Z" fill="#0087CA" fill-rule="evenodd" clip-rule="evenodd"/><path d="M15.97 115.04C17.26 115.54 18.17 116.79 18.17 118.26 18.17 118.36 18.17 118.45 18.16 118.55L18.12 137.54C18.12 143.43 17.61 149.88 17.37 155.82 17.37 156.18 17.13 156.55 16.65 156.82 16.17 157.1 15.54 157.23 14.92 157.23 14.29 157.23 13.66 157.09 13.19 156.82 12.71 156.54 12.47 156.18 12.47 155.82 12.45 149.71 12.41 143.59 12.41 137.48L10.94 124.36 9.04 125.43 8.5 142.97C8.28 149.06 8 155.16 7.75 161.26 7.75 161.62 7.51 161.98 7.03 162.26 6.55 162.54 5.92 162.67 5.3 162.67 4.67 162.67 4.04 162.53 3.57 162.26 3.09 161.98 2.85 161.62 2.85 161.26 2.83 155.15 2.79 149.03 2.79 142.92L1.67 123.98C1.66 123.89 1.66 123.79 1.66 123.69 1.66 121.64 2.93 120.97 4.44 120.12L9.34 117.35 12.82 115.38C13.88 114.8 14.92 114.64 15.97 115.04Z" fill="#00CEF0" fill-rule="evenodd" clip-rule="evenodd"/><path d="M16.3 114.19C17.13 114.51 17.84 115.08 18.33 115.8 18.81 116.5 19.09 117.35 19.09 118.27 18.86 124.57 19.05 131.22 19.03 137.55L19.03 137.55C19.03 141.48 18.8 145.7 18.57 149.86 18.46 151.9 18.35 153.92 18.27 155.83L18.27 155.83C18.27 156.2 18.15 156.57 17.91 156.91L17.91 156.91C17.72 157.18 17.44 157.43 17.09 157.63L17.03 157.66C16.73 157.82 16.4 157.95 16.05 158.03 15.67 158.12 15.28 158.17 14.9 158.17 14.52 158.17 14.13 158.12 13.75 158.03 13.38 157.94 13.02 157.81 12.71 157.63 12.35 157.42 12.08 157.18 11.89 156.91 11.87 156.88 11.85 156.86 11.84 156.83 11.63 156.51 11.53 156.18 11.53 155.83L11.53 155.83C11.52 153.57 11.51 151.3 11.5 149.02 11.48 144.76 11.46 140.49 11.46 137.53L10.15 125.85 9.91 125.99 9.4 143.01C9.25 147.12 9.08 151.18 8.91 155.23 8.82 157.28 8.73 159.33 8.65 161.26L8.65 161.26C8.65 161.63 8.53 162 8.29 162.34L8.29 162.34C8.1 162.61 7.82 162.85 7.47 163.06L7.41 163.09C7.11 163.25 6.78 163.38 6.43 163.46 6.05 163.55 5.66 163.6 5.28 163.6 4.9 163.6 4.51 163.56 4.13 163.46 3.76 163.37 3.4 163.24 3.09 163.06 2.73 162.85 2.46 162.61 2.27 162.34 2.25 162.31 2.23 162.29 2.22 162.26 2.02 161.95 1.91 161.61 1.91 161.26L1.91 161.26C1.9 159 1.89 156.72 1.88 154.44 1.86 150.16 1.84 145.89 1.84 142.92L0.72 124.06 0.72 124.06 0.7 123.7C0.7 121.17 2.12 120.36 3.83 119.4L3.95 119.33 3.95 119.33C6.74 117.75 9.53 116.13 12.34 114.58L12.34 114.58C12.98 114.23 13.62 114.01 14.26 113.93 14.96 113.85 15.63 113.93 16.3 114.19L16.3 114.19ZM16.81 116.83C16.52 116.41 16.11 116.08 15.64 115.9 15.27 115.76 14.89 115.71 14.51 115.76 14.11 115.81 13.69 115.96 13.26 116.19L4.89 120.92 4.89 120.92 4.77 120.99C3.58 121.66 2.58 122.22 2.58 123.69L2.58 123.8 2.59 123.9 2.59 123.9 3.71 142.8C3.72 142.84 3.72 142.88 3.72 142.92 3.72 147.63 3.73 151.03 3.75 154.43 3.76 156.7 3.77 158.96 3.78 161.24L3.8 161.26C3.85 161.33 3.93 161.39 4.04 161.46 4.2 161.55 4.39 161.62 4.59 161.67 4.81 161.72 5.06 161.75 5.32 161.75 5.58 161.75 5.83 161.72 6.05 161.67 6.24 161.62 6.41 161.56 6.56 161.48L6.6 161.46C6.72 161.39 6.8 161.33 6.84 161.26L6.84 161.26 6.84 161.26C6.85 161.25 6.85 161.26 6.85 161.25L6.85 161.25 6.85 161.21C6.94 159.11 7.02 157.12 7.11 155.13 7.29 151.04 7.46 146.95 7.61 142.92L8.14 125.39 8.14 125.39C8.15 125.08 8.32 124.78 8.61 124.62L10.45 123.58C10.57 123.5 10.71 123.45 10.87 123.43 11.37 123.37 11.83 123.74 11.89 124.24L13.35 137.31C13.36 137.36 13.36 137.41 13.36 137.47 13.36 142.19 13.37 145.59 13.39 148.99 13.4 151.25 13.41 153.52 13.42 155.79L13.44 155.81C13.49 155.88 13.57 155.94 13.68 156.01 13.84 156.1 14.02 156.17 14.23 156.22 14.45 156.27 14.7 156.3 14.96 156.3 15.22 156.3 15.47 156.27 15.69 156.22 15.88 156.17 16.05 156.11 16.2 156.03L16.24 156.01C16.36 155.94 16.44 155.88 16.48 155.81L16.48 155.81 16.48 155.81C16.49 155.8 16.49 155.81 16.49 155.8L16.49 155.8 16.49 155.76C16.57 153.75 16.68 151.75 16.79 149.73 17.01 145.64 17.24 141.48 17.24 137.51L17.24 137.51 17.28 118.59C17.28 118.54 17.28 118.49 17.28 118.44L17.29 118.33 17.29 118.22C17.25 117.73 17.09 117.24 16.81 116.83Z" fill="#0087CA" fill-rule="evenodd" clip-rule="evenodd"/><path d="M7.61 98.17C7.66 97.87 7.66 97.55 7.6 97.23L2.82 98.05C3.53 102.19 2.73 108.26 3.11 112.62 3.12 112.9 3.18 113.18 3.31 113.44L7.3 122.62C7.38 122.82 7.49 123 7.65 123.17 8.27 123.81 9.29 123.83 9.93 123.2 10.41 122.73 10.54 122.03 10.31 121.45L7.12 112.27 7.61 98.17Z" fill="#A6EDF8" fill-rule="evenodd" clip-rule="evenodd"/><path d="M8.56 97.69C8.56 97.88 8.55 98.07 8.52 98.25L8.03 112.12 11.15 121.11 11.15 121.11C11.34 121.58 11.38 122.09 11.27 122.58 11.17 123.05 10.93 123.5 10.56 123.87 10.06 124.36 9.41 124.59 8.76 124.59 8.11 124.58 7.46 124.32 6.98 123.82 6.86 123.7 6.76 123.56 6.66 123.42 6.56 123.27 6.49 123.11 6.43 122.96L6.43 122.96 2.47 113.85 2.47 113.85C2.38 113.66 2.31 113.47 2.26 113.27L2.26 113.27C2.22 113.09 2.19 112.9 2.18 112.72L2.18 112.72C2.01 110.79 2.07 108.52 2.13 106.23 2.21 103.37 2.28 100.48 1.9 98.23L1.74 97.32 8.33 96.19 8.49 97.1C8.54 97.27 8.56 97.48 8.56 97.69L8.56 97.69ZM6.68 98.32 3.86 98.8C4.12 101.03 4.05 103.65 3.98 106.25 3.92 108.47 3.86 110.66 4.03 112.54L4.03 112.6C4.03 112.67 4.04 112.75 4.06 112.82 4.08 112.89 4.1 112.96 4.14 113.03L4.15 113.07 8.14 122.25 8.16 122.29C8.18 122.34 8.2 122.38 8.22 122.41 8.24 122.44 8.27 122.48 8.31 122.52 8.45 122.66 8.62 122.73 8.8 122.73 8.98 122.73 9.16 122.67 9.3 122.53 9.4 122.43 9.47 122.31 9.49 122.18 9.52 122.04 9.51 121.9 9.46 121.77L9.45 121.73 6.2 112.38 6.68 98.32Z" fill="#A6EDF8" fill-rule="evenodd" clip-rule="evenodd"/><path d="M13.79 94.07 18.47 91.69 25.2 103.43 31.47 110.83C31.6 111 31.7 111.19 31.76 111.41 31.99 112.27 31.48 113.16 30.62 113.39 29.97 113.57 29.31 113.32 28.92 112.82L22.33 105.69 13.79 94.07Z" fill="#F8F9FD" fill-rule="evenodd" clip-rule="evenodd"/><path d="M13.38 93.25 18.84 90.48 25.97 102.91 32.18 110.24 32.2 110.27C32.31 110.4 32.4 110.55 32.48 110.7 32.56 110.86 32.62 111.02 32.67 111.18 32.85 111.85 32.74 112.54 32.42 113.1 32.1 113.66 31.56 114.11 30.88 114.29 30.38 114.42 29.87 114.4 29.41 114.24 28.94 114.08 28.53 113.79 28.22 113.4L21.62 106.26C18.55 102.09 15.49 97.91 12.42 93.73L13.38 93.25 13.38 93.25ZM18.11 92.92 15.18 94.41 23.06 105.14 29.64 112.26 29.65 112.28C29.74 112.39 29.85 112.47 29.98 112.52 30.1 112.56 30.24 112.57 30.39 112.53 30.58 112.48 30.72 112.36 30.81 112.21 30.9 112.06 30.93 111.87 30.88 111.68 30.87 111.63 30.85 111.58 30.83 111.55 30.81 111.52 30.8 111.49 30.77 111.46L24.44 103.99 18.11 92.92Z" fill="#0087CA" fill-rule="evenodd" clip-rule="evenodd"/><path d="M17.76 118.01 17.76 118.01C18.42 117.63 18.7 117.11 18.59 116.62L18.59 92.26C18.34 90.04 15.07 88.15 13.63 88.98L6.64 93.02 4.05 94.52C2.96 95.13 1.57 96.43 1.53 97.97L1.53 123.11C1.49 123.26 1.49 123.42 1.53 123.57L1.53 123.68 1.56 123.67C1.67 123.99 1.26 124.27 2.04 124.72 2.82 125.17 5.02 125.38 6.16 124.72L17.76 118.01 17.76 118.01Z" fill="#F8F9FD" fill-rule="evenodd" clip-rule="evenodd"/><path d="M18.31 118.76C18.26 118.8 18.21 118.83 18.15 118.86L6.63 125.51C5.96 125.9 5.06 126.06 4.19 126.06 3.18 126.06 2.14 125.84 1.59 125.51 0.56 124.92 0.58 124.4 0.65 123.9 0.63 123.83 0.62 123.75 0.62 123.67L0.62 123.65C0.6 123.55 0.59 123.44 0.59 123.34 0.59 123.23 0.6 123.11 0.62 123L0.62 97.95C0.64 97.07 0.99 96.26 1.49 95.58 2.09 94.76 2.9 94.11 3.61 93.72L13.18 88.19C13.47 88.02 13.79 87.92 14.14 87.88 14.97 87.79 15.96 88.06 16.85 88.58 17.71 89.08 18.51 89.81 19 90.66 19.26 91.11 19.44 91.59 19.5 92.09 19.51 92.14 19.51 92.2 19.51 92.26L19.51 116.56C19.57 117 19.48 117.44 19.24 117.85 19.04 118.19 18.73 118.5 18.31 118.76L18.31 118.76ZM17.37 117.18C17.52 117.09 17.62 116.99 17.67 116.9 17.69 116.86 17.7 116.83 17.7 116.81 17.69 116.75 17.68 116.68 17.68 116.62L17.68 116.62 17.68 92.3C17.64 92.06 17.55 91.81 17.41 91.58 17.08 91.01 16.53 90.51 15.93 90.17 15.36 89.84 14.78 89.66 14.34 89.71 14.24 89.72 14.16 89.74 14.1 89.78 10.9 91.62 7.72 93.51 4.5 95.32 3.98 95.61 3.38 96.08 2.96 96.66 2.66 97.07 2.46 97.52 2.45 97.99L2.45 123.11C2.45 123.18 2.44 123.25 2.42 123.32L2.42 123.32 2.42 123.34 2.42 123.36C2.43 123.39 2.44 123.42 2.45 123.45 2.5 123.64 2.5 123.78 2.49 123.92L2.49 123.91 2.46 124.08C2.47 124.03 2.48 123.97 2.48 123.92L2.48 123.91C2.78 124.08 3.44 124.2 4.17 124.2 4.76 124.2 5.33 124.12 5.69 123.91L17.21 117.26C17.27 117.23 17.32 117.2 17.37 117.18Z" fill="#0087CA" fill-rule="evenodd" clip-rule="evenodd"/><path d="M10.54 79.11 9.51 79.11C8.68 79.14 7.91 79.5 7.35 80.06 6.8 80.6 6.46 81.33 6.46 82.14L6.46 82.26 6.58 85.18C6.88 84.68 7.06 84.08 7.08 83.33 7.09 82.82 7.52 82.42 8.02 82.44 8.05 82.44 8.07 82.44 8.1 82.45L8.1 82.45C9.69 82.64 10.74 82.69 11.54 82.44 12.2 82.23 12.78 81.78 13.48 80.97 13.26 80.5 12.92 80.09 12.5 79.77 11.95 79.36 11.27 79.11 10.54 79.11L10.54 79.11ZM9.65 77.27 10.54 77.27C11.66 77.27 12.73 77.65 13.59 78.28 14.45 78.92 15.1 79.82 15.4 80.86 15.49 81.14 15.44 81.46 15.24 81.71 14.14 83.08 13.25 83.82 12.09 84.18 11.17 84.47 10.17 84.48 8.81 84.36 8.68 85.04 8.45 85.63 8.13 86.16 7.67 86.92 7.03 87.53 6.27 88.06 6.13 88.16 5.96 88.22 5.78 88.23 5.27 88.25 4.84 87.85 4.82 87.35L4.61 82.33 4.6 82.14C4.6 80.82 5.16 79.62 6.05 78.75 6.92 77.89 8.13 77.33 9.43 77.28L9.65 77.27Z" fill="#0087CA" fill-rule="evenodd" clip-rule="evenodd"/><path d="M7.61 123.83 10.22 122.19 12.74 126.14 12.22 127.16 13.9 130.9 11.92 131.34C8.62 127.1 9.18 127.92 7.61 123.83Z" fill="#FFFFFF" fill-rule="evenodd" clip-rule="evenodd"/><path d="M7.2 123 9.74 121.41C10.17 121.14 10.73 121.27 11 121.69L13.52 125.64C13.7 125.92 13.71 126.27 13.57 126.55L13.57 126.55 13.25 127.18 14.75 130.52C14.96 130.98 14.75 131.53 14.28 131.73 14.22 131.76 14.16 131.77 14.11 131.79L12.13 132.24C11.76 132.32 11.39 132.17 11.18 131.88L10.79 131.38C9.44 129.65 8.81 128.84 8.36 128.06 7.96 127.36 7.72 126.72 7.27 125.53 7.17 125.28 7.06 124.97 6.75 124.16 6.58 123.71 6.78 123.21 7.2 123L7.2 123ZM9.94 123.45 8.74 124.2 8.99 124.88C9.4 125.97 9.61 126.55 9.95 127.14 10.35 127.84 10.95 128.6 12.23 130.25L12.28 130.32 12.6 130.25 11.4 127.57C11.27 127.32 11.27 127.01 11.4 126.74L11.68 126.19 9.94 123.45Z" fill="#0087CA" fill-rule="evenodd" clip-rule="evenodd"/><path d="M7.12 102.48 1.54 99.93C2.25 104.07 2.74 108.26 3.11 112.62 3.12 112.9 3.18 113.18 3.31 113.44L7.3 122.62C7.38 122.82 7.49 123 7.65 123.17 8.27 123.81 9.29 123.83 9.93 123.2 10.41 122.73 10.54 122.03 10.31 121.45L7.12 112.27 7.12 102.48Z" fill="#F8F9FD" fill-rule="evenodd" clip-rule="evenodd"/><path d="M0.63 100.09C0.54 99.59 0.88 99.11 1.38 99.03 1.88 98.95 2.36 99.28 2.44 99.78 2.8 101.88 3.1 103.98 3.36 106.09 3.62 108.21 3.84 110.36 4.03 112.55L4.03 112.61C4.03 112.68 4.04 112.76 4.06 112.83 4.08 112.9 4.1 112.97 4.14 113.04L4.15 113.08 8.14 122.26 8.16 122.3C8.18 122.35 8.2 122.39 8.22 122.42 8.24 122.45 8.27 122.49 8.31 122.53 8.45 122.67 8.62 122.74 8.8 122.74 8.98 122.74 9.16 122.68 9.3 122.54 9.4 122.44 9.47 122.32 9.49 122.19 9.52 122.05 9.51 121.91 9.46 121.78L9.45 121.74 6.21 112.41 6.21 102.47C6.21 101.96 6.62 101.55 7.13 101.55 7.64 101.55 8.05 101.96 8.05 102.47L8.05 112.1 11.18 121.1 11.18 121.1C11.37 121.57 11.41 122.08 11.3 122.57 11.2 123.04 10.96 123.49 10.59 123.86 10.09 124.35 9.44 124.58 8.79 124.58 8.14 124.57 7.49 124.31 7.01 123.81 6.89 123.69 6.79 123.55 6.69 123.41 6.59 123.26 6.52 123.1 6.46 122.95L6.46 122.95 2.5 113.84 2.5 113.84C2.41 113.65 2.34 113.46 2.29 113.26L2.29 113.26C2.25 113.08 2.22 112.89 2.21 112.71L2.21 112.71C2.02 110.54 1.81 108.41 1.55 106.32 1.28 104.2 0.98 102.13 0.63 100.09Z" fill="#0087CA" fill-rule="evenodd" clip-rule="evenodd"/><path d="M110.54 110.25 110.54 133.02 103.56 140.83 103.56 118.06Z" fill="#0087CA" fill-rule="evenodd" clip-rule="evenodd"/><path d="M111.46 110.25 111.46 133.02C111.46 133.29 111.35 133.53 111.17 133.69L104.25 141.44C103.91 141.82 103.33 141.85 102.95 141.51 102.75 141.33 102.64 141.08 102.64 140.83L102.64 140.83 102.64 118.06C102.64 117.79 102.75 117.55 102.93 117.39L109.85 109.64C110.19 109.26 110.77 109.23 111.15 109.57 111.36 109.74 111.46 109.99 111.46 110.25L111.46 110.25 111.46 110.25ZM109.62 132.67 109.62 112.65 104.49 118.39 104.49 138.41 109.62 132.67Z" fill="#0087CA" fill-rule="evenodd" clip-rule="evenodd"/><path d="M121.24 136.45 121.24 159.23 106.75 161.9 106.75 139.12Z" fill="#00CEF0" fill-rule="evenodd" clip-rule="evenodd"/><path d="M122.16 136.45 122.16 159.22C122.16 159.7 121.8 160.09 121.33 160.14L106.91 162.8C106.41 162.89 105.93 162.56 105.84 162.06 105.83 162 105.82 161.95 105.82 161.89L105.82 161.89 105.82 139.12C105.82 138.64 106.18 138.25 106.65 138.2L121.07 135.54C121.57 135.45 122.05 135.78 122.14 136.28 122.15 136.34 122.16 136.4 122.16 136.45L122.16 136.45 122.16 136.45ZM120.32 158.46 120.32 137.56 107.67 139.89 107.67 160.79 120.32 158.46Z" fill="#0087CA" fill-rule="evenodd" clip-rule="evenodd"/><path d="M106.75 139.12 106.75 161.9 103.56 166.34 103.56 143.56Z" fill="#0087CA" fill-rule="evenodd" clip-rule="evenodd"/><path d="M107.67 139.12 107.67 161.89C107.67 162.12 107.59 162.33 107.45 162.49L104.31 166.87C104.01 167.28 103.44 167.37 103.03 167.08 102.78 166.9 102.65 166.62 102.65 166.33L102.65 166.33 102.65 143.56C102.65 143.33 102.73 143.12 102.87 142.96L106.01 138.58C106.31 138.17 106.88 138.07 107.29 138.37 107.53 138.56 107.66 138.84 107.67 139.12L107.67 139.12 107.67 139.12ZM105.82 161.61 105.82 141.99 104.48 143.86 104.48 163.48 105.82 161.61Z" fill="#0087CA" fill-rule="evenodd" clip-rule="evenodd"/><path d="M110.54 151.37 110.54 174.15 96.7 182.14 96.7 159.36Z" fill="#0087CA" fill-rule="evenodd" clip-rule="evenodd"/><path d="M111.46 151.37 111.46 174.14C111.46 174.51 111.24 174.83 110.92 174.98L97.15 182.93C96.71 183.18 96.15 183.03 95.9 182.59 95.82 182.45 95.78 182.29 95.78 182.13L95.78 182.13 95.78 159.36C95.78 158.99 96 158.67 96.32 158.52L110.09 150.57C110.53 150.32 111.09 150.47 111.34 150.91 111.42 151.06 111.46 151.22 111.46 151.37L111.46 151.37 111.46 151.37ZM109.62 173.62 109.62 152.97 97.62 159.9 97.62 180.55 109.62 173.62Z" fill="#0087CA" fill-rule="evenodd" clip-rule="evenodd"/><path d="M96.7 159.36 96.7 182.14 83.17 178.11 83.17 155.34Z" fill="#00CEF0" fill-rule="evenodd" clip-rule="evenodd"/><path d="M97.62 159.36 97.62 182.13C97.62 182.64 97.21 183.05 96.7 183.05 96.59 183.05 96.48 183.03 96.39 182.99L82.92 178.98C82.52 178.86 82.26 178.49 82.26 178.1L82.26 178.1 82.26 155.33C82.26 154.82 82.67 154.41 83.18 154.41 83.29 154.41 83.4 154.43 83.49 154.47L96.96 158.48C97.36 158.6 97.62 158.97 97.62 159.36L97.62 159.36 97.62 159.36ZM95.77 180.9 95.77 160.05 84.09 156.57 84.09 177.42 95.77 180.9Z" fill="#0087CA" fill-rule="evenodd" clip-rule="evenodd"/><path d="M83.17 155.34 83.17 178.11 75.48 179.95 75.48 157.17Z" fill="#0087CA" fill-rule="evenodd" clip-rule="evenodd"/><path d="M84.09 155.34 84.09 178.11C84.09 178.58 83.75 178.96 83.3 179.02L75.69 180.84C75.2 180.96 74.7 180.65 74.58 180.16 74.56 180.09 74.55 180.02 74.55 179.95L74.55 179.95 74.55 157.18C74.55 156.71 74.89 156.33 75.34 156.27L82.95 154.45C83.44 154.33 83.94 154.64 84.06 155.13 84.08 155.19 84.09 155.27 84.09 155.34L84.09 155.34 84.09 155.34ZM82.25 177.39 82.25 156.5 76.4 157.9 76.4 178.78 82.25 177.39Z" fill="#0087CA" fill-rule="evenodd" clip-rule="evenodd"/><path d="M75.48 157.17 75.48 179.95 70.85 188.31 70.85 165.54Z" fill="#0087CA" fill-rule="evenodd" clip-rule="evenodd"/><path d="M76.4 157.17 76.4 179.94C76.4 180.12 76.35 180.29 76.26 180.44L71.66 188.75C71.42 189.19 70.85 189.36 70.41 189.11 70.11 188.94 69.93 188.63 69.93 188.3L69.93 188.3 69.93 165.53C69.93 165.35 69.98 165.18 70.07 165.03L74.67 156.72C74.91 156.27 75.48 156.11 75.92 156.36 76.23 156.53 76.4 156.85 76.4 157.17L76.4 157.17 76.4 157.17ZM74.56 179.71 74.56 160.74 71.78 165.77 71.78 184.74 74.56 179.71Z" fill="#0087CA" fill-rule="evenodd" clip-rule="evenodd"/><rect x="51.31" y="165.54" width="19.55" height="22.77" fill="#00CEF0" fill-rule="evenodd" clip-rule="evenodd"/><path d="M71.78 165.54 71.78 188.31C71.78 188.82 71.37 189.23 70.86 189.23L51.31 189.23C50.8 189.23 50.39 188.82 50.39 188.31L50.39 165.54C50.39 165.03 50.8 164.62 51.31 164.62L70.86 164.62C71.36 164.62 71.78 165.03 71.78 165.54L71.78 165.54ZM69.93 187.39 69.93 166.46 52.23 166.46 52.23 187.39 69.93 187.39Z" fill="#0087CA" fill-rule="evenodd" clip-rule="evenodd"/><path d="M51.31 165.54 51.31 188.31 46.68 179.95 38.99 178.11 38.99 155.34 46.68 157.17Z" fill="#A6EDF8" fill-rule="evenodd" clip-rule="evenodd"/><path d="M52.23 165.6 52.23 188.31C52.23 188.82 51.82 189.23 51.31 189.23 50.96 189.23 50.66 189.04 50.51 188.75L50.51 188.75 46.08 180.74 38.78 179C38.36 178.9 38.07 178.52 38.07 178.11L38.07 155.34C38.07 154.83 38.48 154.42 38.99 154.42 39.07 154.42 39.15 154.43 39.23 154.45L46.89 156.28C47.15 156.34 47.36 156.51 47.48 156.73L47.48 156.73 52.11 165.1C52.2 165.26 52.24 165.43 52.23 165.6L52.23 165.6ZM50.39 184.75 50.39 165.78 46.07 157.97 39.91 156.5 39.91 177.38 46.83 179.04C47.1 179.09 47.34 179.25 47.49 179.5L50.39 184.75Z" fill="#0087CA" fill-rule="evenodd" clip-rule="evenodd"/><path d="M38.99 155.34 38.99 178.11 25.46 182.14 25.46 159.36Z" fill="#0087CA" fill-rule="evenodd" clip-rule="evenodd"/><path d="M39.91 155.34 39.91 178.11C39.91 178.55 39.61 178.91 39.2 179.01L25.72 183.03C25.23 183.17 24.72 182.9 24.57 182.41 24.54 182.32 24.53 182.23 24.53 182.15L24.53 182.15 24.53 159.38C24.53 158.94 24.83 158.58 25.24 158.48L38.72 154.46C39.21 154.32 39.72 154.59 39.87 155.08 39.9 155.16 39.91 155.25 39.91 155.34L39.91 155.34 39.91 155.34ZM38.07 177.42 38.07 156.57 26.39 160.05 26.39 180.9 38.07 177.42Z" fill="#0087CA" fill-rule="evenodd" clip-rule="evenodd"/><path d="M25.46 159.37 25.46 182.14C20.85 179.48 16.23 176.81 11.62 174.15L11.62 161.2 0.92 159.23 0.92 136.46 15.41 139.13 18.59 143.57 18.59 155.41 25.46 159.37Z" fill="#A6EDF8" fill-rule="evenodd" clip-rule="evenodd"/><path d="M26.38 159.42 26.38 182.14C26.38 182.65 25.97 183.06 25.46 183.06 25.28 183.06 25.12 183.01 24.98 182.92L11.16 174.94C10.86 174.77 10.7 174.46 10.7 174.14L10.7 174.14 10.7 161.96 0.76 160.13C0.3 160.05-0.01 159.64 0.01 159.19L0.01 136.45C0.01 135.94 0.42 135.53 0.93 135.53 0.99 135.53 1.04 135.54 1.1 135.54L15.59 138.21C15.83 138.25 16.04 138.39 16.17 138.58L16.17 138.58 19.35 143.02C19.48 143.2 19.54 143.42 19.52 143.63L19.52 154.86 25.93 158.56C26.24 158.75 26.4 159.08 26.38 159.42L26.38 159.42ZM24.55 180.55 24.55 159.9 18.14 156.2 18.14 156.2C17.87 156.04 17.68 155.74 17.68 155.41L17.68 143.87 14.88 139.97 1.84 137.57 1.84 158.47 11.71 160.29C12.18 160.34 12.54 160.73 12.54 161.21L12.54 173.63 24.55 180.55Z" fill="#0087CA" fill-rule="evenodd" clip-rule="evenodd"/><path d="M18.6 118.06 18.6 140.83 11.62 133.02 11.62 110.25Z" fill="#A6EDF8" fill-rule="evenodd" clip-rule="evenodd"/><path d="M19.52 118.06 19.52 140.83C19.52 141.34 19.11 141.75 18.6 141.75 18.3 141.75 18.03 141.6 17.86 141.38L10.94 133.63C10.78 133.45 10.71 133.24 10.71 133.02L10.71 133.02 10.71 110.25C10.71 109.74 11.12 109.33 11.63 109.33 11.93 109.33 12.2 109.48 12.37 109.7L19.29 117.45C19.44 117.62 19.52 117.84 19.52 118.06L19.52 118.06 19.52 118.06ZM17.68 138.42 17.68 118.4 12.55 112.66 12.55 132.68 17.68 138.42Z" fill="#0087CA" fill-rule="evenodd" clip-rule="evenodd"/><path d="M49.63 130.81 49.63 149.45C50.88 148.15 52.57 147.23 54.39 146.6 56.81 145.77 59.51 145.47 61.74 145.53 63.83 145.59 66.36 146 68.59 146.91 70.09 147.52 71.47 148.35 72.53 149.44L72.53 130.81 72.53 130.76C72.48 129.43 71.73 128.33 70.68 127.47 69.12 126.18 66.9 125.38 65.14 125.01 62.82 124.52 59.99 124.45 57.34 124.94 55.08 125.36 52.96 126.19 51.41 127.52 50.91 127.95 50.46 128.46 50.13 129.02 49.86 129.48 49.68 129.99 49.63 130.53L49.63 130.56 49.63 130.81 49.63 130.81 49.63 130.81ZM49.63 153.55 49.63 153.58C49.63 154.09 49.22 154.5 48.71 154.5 48.2 154.5 47.79 154.09 47.79 153.58L47.79 130.81 47.79 130.81 47.8 130.47C47.8 130.43 47.8 130.4 47.8 130.36 47.87 129.54 48.14 128.78 48.54 128.09 48.98 127.34 49.57 126.67 50.22 126.12 52.03 124.57 54.45 123.61 57.01 123.13 59.9 122.59 62.98 122.66 65.52 123.2 67.51 123.62 70.03 124.54 71.86 126.04 73.29 127.22 74.3 128.75 74.37 130.7 74.37 130.74 74.38 130.77 74.38 130.81L74.38 153.58 74.38 153.58C74.38 154.07 73.99 154.48 73.5 154.5 72.99 154.52 72.56 154.13 72.54 153.62L72.54 153.58 72.54 153.58 72.54 153.55C72.52 153.13 72.45 152.77 72.33 152.42 72.21 152.06 72.01 151.71 71.74 151.34 70.86 150.13 69.47 149.24 67.91 148.61 65.89 147.79 63.6 147.42 61.69 147.36 59.65 147.3 57.19 147.58 54.98 148.33 53.24 148.92 51.68 149.81 50.63 151.06 50.3 151.46 50.05 151.85 49.89 152.26 49.74 152.65 49.66 153.07 49.63 153.55Z" fill="#0087CA" fill-rule="evenodd" clip-rule="evenodd"/><path d="M75.48 104.44 83.17 106.28 96.69 102.25C101.3 104.91 105.92 107.58 110.53 110.24L103.55 118.05 106.73 122.49 121.22 125.16C121.22 128.92 121.22 132.68 121.22 136.44L106.73 139.11 103.55 143.55 110.53 151.36C105.92 154.02 101.3 156.69 96.69 159.35L83.17 155.32 75.48 157.16 70.85 165.53C64.33 165.53 57.82 165.53 51.3 165.53L46.67 157.16 38.98 155.32 25.45 159.35C20.84 156.68 16.22 154.02 11.61 151.36L18.59 143.55 15.41 139.11 0.92 136.44C0.92 132.68 0.92 128.92 0.92 125.15L15.41 122.48 18.59 118.04 11.61 110.23C16.23 107.57 20.84 104.9 25.45 102.24L38.98 106.27 46.67 104.43 51.3 96.06C57.82 96.06 64.33 96.06 70.85 96.06L75.48 104.44Z" fill="#F8F9FD" fill-rule="evenodd" clip-rule="evenodd"/><path d="M76.09 103.65 83.14 105.33 96.43 101.37C96.71 101.29 96.99 101.34 97.21 101.49L104.07 105.45 104.12 105.48 110.99 109.45C111.43 109.71 111.58 110.27 111.33 110.71 111.29 110.78 111.24 110.85 111.18 110.9L104.73 118.12 107.27 121.66 121.4 124.27C121.84 124.35 122.15 124.74 122.15 125.17L122.15 125.17 122.15 136.45C122.15 136.93 121.79 137.32 121.32 137.37L107.27 139.96 104.73 143.5 111.22 150.76C111.56 151.14 111.53 151.72 111.15 152.06 111.1 152.11 111.04 152.15 110.97 152.18L106.28 154.89 106.28 154.89 97.15 160.16C96.92 160.29 96.66 160.32 96.43 160.25L83.14 156.29 76.09 157.98 71.66 165.99C71.49 166.3 71.18 166.47 70.85 166.47L70.85 166.47 51.31 166.47C50.94 166.47 50.62 166.25 50.48 165.94L46.08 157.98 39.03 156.3 25.74 160.26C25.47 160.34 25.2 160.29 24.98 160.15L18.09 156.17 18.04 156.14 11.17 152.17C10.73 151.92 10.58 151.36 10.83 150.92 10.86 150.86 10.9 150.81 10.94 150.76L17.43 143.5 14.89 139.96 0.77 137.36C0.33 137.28 0.02 136.89 0.02 136.46L0.02 136.46 0.02 125.17C0.02 124.69 0.38 124.3 0.85 124.25L14.9 121.66 17.44 118.12 10.95 110.86C10.61 110.48 10.64 109.9 11.02 109.56 11.07 109.52 11.12 109.48 11.17 109.45L11.17 109.45 15.32 107.06C17.55 105.77 12.25 108.83 25.02 101.46 25.25 101.33 25.51 101.31 25.74 101.38L25.74 101.38 39.03 105.34 46.08 103.65 50.51 95.64C50.68 95.34 50.99 95.16 51.32 95.16L51.32 95.16 70.87 95.16C71.24 95.16 71.56 95.38 71.7 95.69L76.09 103.65 76.09 103.65ZM82.96 107.18 75.33 105.36C75.06 105.32 74.82 105.15 74.67 104.9L70.31 97 51.85 97 47.49 104.89 47.49 104.89C47.37 105.11 47.16 105.28 46.9 105.34L39.28 107.16C39.11 107.22 38.92 107.22 38.74 107.17L25.59 103.25C19.82 106.58 24.77 103.73 16.24 108.65L13.07 110.48 19.24 117.39C19.57 117.7 19.63 118.22 19.36 118.6L16.18 123.04 16.18 123.04C16.05 123.23 15.84 123.36 15.6 123.41L1.86 125.94 1.86 135.69 15.53 138.21C15.78 138.24 16.02 138.37 16.18 138.59L19.37 143.03 19.37 143.03C19.62 143.37 19.6 143.85 19.31 144.18L13.08 151.15 18.97 154.55 19.02 154.58 25.6 158.38 38.75 154.46 38.75 154.46C38.9 154.42 39.06 154.41 39.22 154.45L46.85 156.27C47.12 156.32 47.36 156.48 47.51 156.74L51.87 164.63 70.33 164.63 74.69 156.74 74.69 156.74C74.81 156.52 75.02 156.35 75.28 156.29L82.9 154.47C83.07 154.42 83.26 154.41 83.44 154.46L96.59 158.38 105.38 153.31 105.38 153.31 109.11 151.16 102.94 144.25C102.61 143.94 102.55 143.42 102.82 143.04L106 138.6 106 138.6C106.13 138.41 106.34 138.28 106.58 138.23L120.32 135.7 120.32 125.94 106.58 123.41C106.35 123.37 106.14 123.24 106 123.04L102.81 118.6C102.56 118.26 102.58 117.78 102.87 117.45L109.09 110.49 103.2 107.09 103.15 107.06 96.58 103.26 83.43 107.18 83.43 107.18C83.28 107.21 83.12 107.21 82.96 107.18Z" fill="#0087CA" fill-rule="evenodd" clip-rule="evenodd"/><path d="M12.54 174.15C12.54 174.66 12.13 175.07 11.62 175.07 11.11 175.07 10.7 174.66 10.7 174.15L10.7 151.38C10.7 150.87 11.11 150.46 11.62 150.46 12.13 150.46 12.54 150.87 12.54 151.38L12.54 174.15Z" fill="#0087CA" fill-rule="evenodd" clip-rule="evenodd"/><path d="M47.6 179.95C47.6 180.46 47.19 180.87 46.68 180.87 46.17 180.87 45.76 180.46 45.76 179.95L45.76 157.18C45.76 156.67 46.17 156.26 46.68 156.26 47.19 156.26 47.6 156.67 47.6 157.18L47.6 179.95Z" fill="#0087CA" fill-rule="evenodd" clip-rule="evenodd"/><g><path d="M121.35 213.6C112.41 213.6 105.16 216.2 105.16 219.4 105.16 222.6 112.41 225.2 121.35 225.2 130.29 225.2 137.54 222.6 137.54 219.4 137.53 216.2 130.29 213.6 121.35 213.6Z" fill-rule="evenodd" clip-rule="evenodd" opacity="0.15"/><path d="M117.17 216.24C116.69 215.96 116.45 215.6 116.45 215.24 116.45 214.88 116.69 214.52 117.17 214.24 117.65 213.96 118.28 213.83 118.9 213.83 119.53 213.83 120.16 213.97 120.63 214.24L125.19 216.87C125.67 217.15 125.91 217.51 125.91 217.87 125.91 218.23 125.67 218.6 125.19 218.87 124.71 219.15 124.08 219.28 123.46 219.28 122.83 219.28 122.2 219.14 121.73 218.87L117.17 216.24Z" fill="#00CEF0" fill-rule="evenodd" clip-rule="evenodd"/><path d="M116.71 217.04C116.35 216.83 116.08 216.59 115.89 216.32 115.87 216.29 115.85 216.27 115.84 216.24 115.63 215.93 115.53 215.59 115.53 215.24 115.53 214.87 115.65 214.5 115.89 214.16L115.89 214.16C116.08 213.89 116.35 213.65 116.71 213.44L116.71 213.44C117.02 213.26 117.38 213.13 117.75 213.04 118.13 212.95 118.52 212.9 118.9 212.9 119.28 212.9 119.67 212.95 120.05 213.04 120.43 213.13 120.78 213.26 121.09 213.44L121.14 213.47 125.65 216.07C126.01 216.28 126.28 216.52 126.47 216.79 126.49 216.82 126.51 216.84 126.52 216.87 126.72 217.18 126.83 217.52 126.83 217.87 126.83 218.24 126.71 218.61 126.47 218.95L126.47 218.95C126.28 219.22 126 219.47 125.65 219.67L125.59 219.7C125.29 219.86 124.96 219.99 124.61 220.07 124.23 220.16 123.84 220.21 123.46 220.21 123.08 220.21 122.69 220.16 122.31 220.07 121.94 219.98 121.58 219.85 121.27 219.66L116.71 217.04 116.71 217.04ZM117.39 215.25C117.44 215.32 117.52 215.38 117.63 215.45L122.19 218.08C122.35 218.17 122.53 218.24 122.74 218.29 122.96 218.34 123.21 218.37 123.47 218.37 123.73 218.37 123.98 218.34 124.2 218.29 124.39 218.25 124.56 218.18 124.71 218.1L124.75 218.08C124.87 218.01 124.95 217.94 124.99 217.88L124.99 217.88 124.99 217.88 124.98 217.87C124.93 217.8 124.85 217.74 124.74 217.67L120.23 215.06 120.18 215.03C120.02 214.94 119.84 214.87 119.63 214.82 119.41 214.77 119.16 214.74 118.9 214.74 118.64 214.74 118.39 214.77 118.17 214.82 117.97 214.87 117.78 214.94 117.62 215.03L117.62 215.03 117.62 215.03C117.51 215.09 117.43 215.16 117.38 215.23L117.38 215.23 117.39 215.25 117.39 215.25Z" fill="#0087CA" fill-rule="evenodd" clip-rule="evenodd"/><path d="M107.55 221.67C107.07 221.39 106.83 221.03 106.83 220.67 106.83 220.31 107.07 219.95 107.55 219.67 108.03 219.39 108.66 219.26 109.28 219.26 109.91 219.26 110.54 219.4 111.01 219.67L115.57 222.3C116.05 222.58 116.29 222.94 116.29 223.3 116.29 223.66 116.05 224.03 115.57 224.3 115.09 224.58 114.46 224.71 113.84 224.71 113.21 224.71 112.58 224.57 112.11 224.3L107.55 221.67Z" fill="#00CEF0" fill-rule="evenodd" clip-rule="evenodd"/><path d="M107.1 222.47C106.74 222.26 106.47 222.02 106.28 221.75 106.26 221.72 106.24 221.7 106.23 221.67 106.03 221.35 105.92 221.02 105.92 220.67 105.92 220.3 106.04 219.93 106.28 219.59L106.28 219.59C106.47 219.32 106.74 219.08 107.1 218.87L107.1 218.87C107.41 218.69 107.77 218.56 108.14 218.47 108.52 218.38 108.91 218.33 109.29 218.33 109.67 218.33 110.06 218.37 110.44 218.47 110.82 218.56 111.17 218.69 111.48 218.87L111.53 218.9 116.04 221.5C116.4 221.71 116.67 221.95 116.86 222.22 116.88 222.25 116.9 222.27 116.91 222.3 117.11 222.62 117.22 222.95 117.22 223.3 117.22 223.67 117.1 224.04 116.86 224.38L116.86 224.38C116.67 224.65 116.39 224.9 116.04 225.1L115.98 225.13C115.68 225.29 115.35 225.42 115 225.5 114.62 225.59 114.23 225.64 113.85 225.64 113.47 225.64 113.08 225.59 112.7 225.5 112.33 225.41 111.97 225.28 111.66 225.09L107.1 222.47 107.1 222.47ZM107.77 220.68C107.82 220.75 107.9 220.81 108.01 220.88L112.57 223.51C112.73 223.6 112.91 223.67 113.12 223.72 113.34 223.77 113.59 223.8 113.85 223.8 114.11 223.8 114.36 223.77 114.58 223.72 114.77 223.67 114.94 223.61 115.09 223.53L115.13 223.51C115.25 223.44 115.33 223.38 115.37 223.31L115.37 223.31 115.37 223.31 115.36 223.3C115.31 223.23 115.23 223.17 115.12 223.1L110.61 220.5 110.56 220.47C110.4 220.38 110.21 220.31 110.01 220.26 109.79 220.21 109.54 220.18 109.28 220.18 109.02 220.18 108.77 220.21 108.55 220.26 108.35 220.31 108.16 220.38 108 220.47L108 220.47 108 220.47C107.89 220.53 107.81 220.6 107.76 220.67L107.76 220.67 107.77 220.68 107.77 220.68Z" fill="#0087CA" fill-rule="evenodd" clip-rule="evenodd"/><path d="M124.52 175.77C125.81 176.27 126.72 177.52 126.72 178.99 126.72 179.09 126.72 179.18 126.71 179.28L125.92 216.56C125.92 216.92 125.68 217.28 125.2 217.56 124.72 217.84 124.09 217.97 123.47 217.97 122.84 217.97 122.21 217.83 121.74 217.56 121.26 217.28 121.02 216.92 121.02 216.56L119.49 186.48 117.59 187.56C116.95 199.14 116.79 210.47 116.31 221.99 116.31 222.35 116.07 222.71 115.59 222.99 115.11 223.27 114.48 223.4 113.86 223.4 113.23 223.4 112.6 223.26 112.13 222.99 111.65 222.71 111.41 222.35 111.41 221.99L110.23 184.71C110.22 184.61 110.22 184.52 110.22 184.42 110.22 182.36 111.49 181.7 113 180.85L117.9 178.08 121.38 176.11C122.43 175.53 123.47 175.37 124.52 175.77Z" fill="#FFFFFF" fill-rule="evenodd" clip-rule="evenodd"/><path d="M124.85 174.91C125.68 175.23 126.39 175.8 126.88 176.52 127.36 177.22 127.64 178.07 127.64 178.98 127.64 179.1 127.63 179.24 127.62 179.36L126.83 216.55 126.83 216.55C126.83 216.92 126.71 217.29 126.47 217.63L126.47 217.63C126.28 217.9 126 218.14 125.65 218.35L125.59 218.38C125.29 218.54 124.96 218.67 124.61 218.75 124.23 218.84 123.84 218.89 123.46 218.89 123.08 218.89 122.69 218.85 122.31 218.75 121.94 218.66 121.58 218.53 121.27 218.35 120.91 218.14 120.64 217.9 120.45 217.63 120.43 217.6 120.41 217.58 120.4 217.55 120.2 217.24 120.09 216.9 120.09 216.55L120.09 216.53 118.64 188.01 118.47 188.1C118.1 194.97 117.89 201.7 117.68 208.43 117.54 212.95 117.4 217.48 117.22 221.98L117.22 221.98C117.22 222.35 117.1 222.72 116.86 223.06L116.86 223.06C116.67 223.33 116.39 223.57 116.04 223.78L115.98 223.81C115.68 223.97 115.35 224.1 115 224.18 114.62 224.27 114.23 224.32 113.85 224.32 113.47 224.32 113.08 224.27 112.7 224.18 112.33 224.09 111.97 223.96 111.66 223.78 111.3 223.57 111.03 223.33 110.84 223.06 110.82 223.03 110.8 223.01 110.79 222.98 110.59 222.67 110.48 222.33 110.48 221.98L110.48 221.93 109.31 184.77 109.29 184.41C109.29 181.88 110.71 181.07 112.42 180.11L112.54 180.05 112.54 180.05C115.33 178.47 118.12 176.85 120.93 175.3L120.93 175.3C121.57 174.95 122.21 174.73 122.85 174.65 123.51 174.57 124.18 174.65 124.85 174.91L124.85 174.91ZM125.36 177.56C125.07 177.14 124.66 176.81 124.19 176.63 123.82 176.49 123.44 176.44 123.06 176.49 122.66 176.54 122.24 176.69 121.81 176.92L113.44 181.65 113.44 181.65 113.32 181.72C112.13 182.39 111.13 182.96 111.13 184.42L111.13 184.53 111.14 184.63 111.14 184.63 111.14 184.68 112.31 221.88C112.31 221.91 112.32 221.94 112.32 221.97L112.33 221.99C112.38 222.06 112.46 222.13 112.57 222.19 112.73 222.28 112.91 222.35 113.12 222.4 113.34 222.45 113.59 222.48 113.85 222.48 114.11 222.48 114.36 222.45 114.58 222.4 114.77 222.35 114.94 222.29 115.09 222.21L115.13 222.19C115.19 222.16 115.39 222.02 115.39 221.95 115.58 217.37 115.72 212.88 115.86 208.38 116.07 201.43 116.29 194.48 116.67 187.5L116.67 187.5C116.69 187.2 116.85 186.91 117.14 186.75L118.99 185.71C119.12 185.62 119.28 185.57 119.45 185.56 119.96 185.54 120.39 185.93 120.41 186.44L121.93 216.44C121.94 216.47 121.94 216.51 121.94 216.54L121.95 216.56C122 216.63 122.08 216.69 122.19 216.76 122.35 216.85 122.53 216.92 122.74 216.97 122.96 217.02 123.21 217.05 123.47 217.05 123.73 217.05 123.98 217.02 124.2 216.97 124.39 216.92 124.56 216.86 124.71 216.78L124.75 216.76C124.82 216.72 125.01 216.61 125.01 216.52L125.8 179.33C125.8 179.29 125.8 179.24 125.8 179.2L125.81 179.09 125.81 178.98C125.8 178.46 125.64 177.96 125.36 177.56Z" fill="#0087CA" fill-rule="evenodd" clip-rule="evenodd"/><path d="M116.96 150.44C117.89 150.98 119.4 150.98 120.33 150.44 121.26 149.9 121.26 149.03 120.33 148.5 119.4 147.96 117.89 147.96 116.96 148.5 116.03 149.03 116.03 149.9 116.96 150.44Z" fill="#FFFFFF" fill-rule="evenodd" clip-rule="evenodd"/><path d="M117.42 149.64C117.74 149.82 118.18 149.92 118.64 149.92 119.1 149.92 119.54 149.83 119.86 149.64 119.97 149.57 120.05 149.52 120.08 149.46 120.04 149.41 119.97 149.35 119.86 149.28L119.82 149.26C119.5 149.09 119.08 149.01 118.63 149.01 118.17 149.01 117.73 149.1 117.41 149.28L117.41 149.28C117.3 149.34 117.23 149.4 117.19 149.46 117.24 149.52 117.31 149.58 117.42 149.64L117.42 149.64 117.42 149.64 117.42 149.64ZM118.65 151.76C117.89 151.76 117.12 151.58 116.51 151.23L116.51 151.23C116.09 150.99 115.79 150.69 115.6 150.36L115.6 150.36 115.6 150.36C115.43 150.07 115.35 149.77 115.35 149.47L115.35 149.47C115.35 149.19 115.42 148.91 115.56 148.64 115.57 148.62 115.58 148.59 115.6 148.57 115.79 148.24 116.09 147.94 116.51 147.7L116.51 147.7 116.51 147.7C117.12 147.35 117.89 147.17 118.65 147.17 119.38 147.17 120.13 147.34 120.73 147.67L120.79 147.7C121.2 147.94 121.51 148.24 121.7 148.57L121.7 148.57 121.7 148.57C121.87 148.86 121.95 149.16 121.95 149.46 121.95 149.77 121.87 150.07 121.7 150.36L121.7 150.36C121.51 150.69 121.2 150.99 120.79 151.23 120.18 151.59 119.41 151.76 118.65 151.76Z" fill="#0087CA" fill-rule="evenodd" clip-rule="evenodd"/><path d="M126.31 178.74 126.31 178.74C126.97 178.36 127.25 177.84 127.14 177.35L127.14 152.99C126.89 150.77 123.62 148.88 122.18 149.71L115.19 153.75 112.6 155.25C111.51 155.86 110.12 157.16 110.08 158.7L110.08 183.84C110.04 183.99 110.04 184.15 110.08 184.3L110.08 184.41 110.11 184.4C110.22 184.72 109.81 185 110.59 185.45 111.37 185.9 113.57 186.11 114.71 185.45L126.31 178.74 126.31 178.74Z" fill="#00CEF0" fill-rule="evenodd" clip-rule="evenodd"/><path d="M126.86 179.49C126.81 179.53 126.76 179.56 126.7 179.58L115.18 186.23C114.51 186.62 113.6 186.78 112.74 186.78 111.73 186.78 110.69 186.55 110.14 186.23 109.28 185.73 109.17 184.78 109.17 183.72L109.17 158.67C109.19 157.79 109.54 156.98 110.04 156.3 110.64 155.48 111.45 154.83 112.16 154.44L121.73 148.91C122.02 148.74 122.34 148.64 122.69 148.6 123.52 148.51 124.51 148.78 125.4 149.3 126.26 149.8 127.06 150.53 127.55 151.38 127.81 151.83 127.99 152.31 128.05 152.81 128.06 152.86 128.07 152.92 128.07 152.98L128.07 177.28C128.13 177.72 128.04 178.16 127.8 178.57 127.59 178.91 127.28 179.23 126.86 179.49L126.86 179.49ZM125.92 177.91C126.07 177.82 126.17 177.72 126.22 177.63 126.24 177.59 126.25 177.56 126.25 177.53 126.24 177.47 126.23 177.4 126.23 177.34L126.23 177.34 126.23 153.02C126.19 152.78 126.1 152.53 125.96 152.3 125.63 151.73 125.08 151.23 124.48 150.89 123.91 150.56 123.33 150.38 122.89 150.43 122.79 150.44 122.71 150.46 122.65 150.5 119.46 152.34 116.27 154.23 113.05 156.04 112.53 156.33 111.93 156.8 111.52 157.38 111.22 157.79 111.02 158.24 111.01 158.71L111.01 183.83C111.01 185.39 113.48 185.09 114.26 184.64L125.78 177.99C125.82 177.96 125.87 177.93 125.92 177.91Z" fill="#0087CA" fill-rule="evenodd" clip-rule="evenodd"/><path d="M116.27 149.47 121.03 149.47 121.38 154C121.39 154.05 121.39 154.09 121.39 154.14 121.39 154.55 121.12 154.95 120.59 155.26 119.52 155.88 117.78 155.88 116.71 155.26 116.17 154.95 115.91 154.55 115.91 154.14 115.91 154.09 115.91 154.05 115.92 154L116.27 149.47Z" fill="#FFFFFF" fill-rule="evenodd" clip-rule="evenodd"/><path d="M116.27 148.54 121.88 148.54 122.29 153.88C122.29 153.91 122.3 153.95 122.3 153.99 122.3 154.05 122.31 154.09 122.31 154.13L122.31 154.13C122.31 154.53 122.18 154.92 121.93 155.27L121.93 155.27C121.72 155.56 121.43 155.82 121.05 156.04 120.37 156.43 119.5 156.63 118.65 156.63 117.8 156.63 116.94 156.43 116.25 156.04L116.25 156.04C115.87 155.82 115.57 155.56 115.37 155.27L115.37 155.27C115.12 154.92 114.99 154.53 114.99 154.13L114.99 154.13C114.99 154.05 115 153.97 115.01 153.88L115.42 148.54 116.27 148.54 116.27 148.54ZM120.18 150.39 117.12 150.39 116.84 154.06 116.83 154.13 116.83 154.13C116.83 154.14 116.84 154.17 116.87 154.2L116.87 154.2C116.93 154.28 117.03 154.37 117.18 154.45L117.18 154.45C117.57 154.67 118.11 154.79 118.66 154.79 119.21 154.79 119.75 154.68 120.14 154.45 120.28 154.37 120.39 154.28 120.45 154.2L120.45 154.2C120.47 154.17 120.49 154.14 120.49 154.13L120.49 154.13 120.49 154.13 120.49 154.13 120.49 154.13 120.48 154.06 120.18 150.39 120.18 150.39Z" fill="#0087CA" fill-rule="evenodd" clip-rule="evenodd"/><path d="M119.09 138.92 118.2 138.92C115.94 138.92 114 140.77 114.09 143.03L114.3 148.05C114.4 150.31 116.15 152.16 118.41 152.16L118.86 152.16C121.12 152.16 122.86 150.31 122.97 148.05L123.2 143.03C123.31 140.77 121.36 138.92 119.09 138.92Z" fill="#FFFFFF" fill-rule="evenodd" clip-rule="evenodd"/><path d="M119.09 139.84 118.06 139.84C117.23 139.87 116.46 140.23 115.9 140.79 115.35 141.33 115.01 142.07 115.01 142.87L115.01 142.99 115.22 148.01C115.26 148.91 115.63 149.73 116.22 150.32 116.78 150.88 117.55 151.23 118.41 151.23L118.86 151.23C119.72 151.23 120.48 150.88 121.04 150.32 121.63 149.73 122.01 148.91 122.05 148L122.28 142.98 122.28 142.84C122.28 142.04 121.94 141.31 121.39 140.77 120.83 140.22 120.06 139.86 119.24 139.82L119.09 139.84 119.09 139.84ZM118.2 138 119.09 138C119.13 138 119.21 138 119.32 138.01 120.61 138.07 121.81 138.62 122.68 139.48 123.57 140.35 124.12 141.54 124.12 142.86 124.12 142.89 124.12 142.96 124.11 143.07L123.88 148.09C123.81 149.47 123.24 150.73 122.34 151.63 121.44 152.53 120.23 153.08 118.85 153.08L118.4 153.08C117.02 153.08 115.8 152.52 114.9 151.63 114 150.73 113.42 149.47 113.37 148.09L113.16 143.07 113.15 142.88C113.15 141.56 113.71 140.36 114.6 139.49 115.48 138.63 116.68 138.07 117.98 138.02L118.2 138Z" fill="#0087CA" fill-rule="evenodd" clip-rule="evenodd"/><path d="M121.45 184.26C121.89 184.01 122.45 184.16 122.7 184.6 122.95 185.04 122.8 185.6 122.36 185.85L118.03 188.35C117.59 188.6 117.03 188.45 116.78 188.01 116.53 187.57 116.68 187.01 117.12 186.76L121.45 184.26Z" fill="#0087CA" fill-rule="evenodd" clip-rule="evenodd"/><path d="M97.89 179.08 96.22 176.8 92.74 179.31 92.83 180.35 91.62 181.9C93.32 183.29 96.24 180.88 97.89 179.08Z" fill="#FFFFFF" fill-rule="evenodd" clip-rule="evenodd"/><path d="M96.7 179.02 96.02 178.09 93.71 179.76 93.76 180.28C93.79 180.57 93.68 180.83 93.49 181.02L93.02 181.48C94.2 181.24 95.35 180.55 96.13 179.68 96.29 179.48 96.47 179.27 96.7 179.02L96.7 179.02ZM96.96 176.26 98.61 178.51C98.88 178.86 98.87 179.36 98.56 179.7 98.16 180.14 97.79 180.55 97.49 180.89 96.38 182.14 94.3 183.41 92.58 183.34 91.76 183.3 91.28 182.96 90.77 182.55 90.73 182.52 90.7 182.49 90.67 182.46 90.32 182.1 90.32 181.51 90.69 181.16L91.88 180 91.82 179.39C91.79 179.08 91.93 178.76 92.2 178.56L95.64 176.08 95.67 176.05C96.09 175.76 96.66 175.85 96.96 176.26Z" fill="#0087CA" fill-rule="evenodd" clip-rule="evenodd"/><path d="M114.17 162.45 107.25 172.98C107.08 173.28 106.84 173.53 106.55 173.71L98.15 179.31C97.98 179.44 97.78 179.53 97.56 179.58 96.68 179.78 95.81 179.24 95.61 178.36 95.46 177.7 95.73 177.04 96.25 176.67L103.92 170.69 109.45 159.47 110.61 157.75 114.17 162.45Z" fill="#00CEF0" fill-rule="evenodd" clip-rule="evenodd"/><path d="M113.4 161.95C113.68 161.53 114.25 161.41 114.67 161.69 115.09 161.97 115.21 162.54 114.93 162.96L108.04 173.45C107.92 173.66 107.77 173.86 107.6 174.04 107.43 174.21 107.25 174.36 107.05 174.49L98.62 180.1C98.5 180.18 98.37 180.25 98.24 180.31L98.24 180.31 98.24 180.31C98.09 180.38 97.93 180.43 97.75 180.47L97.74 180.47C97.06 180.63 96.37 180.49 95.82 180.15 95.27 179.8 94.84 179.25 94.68 178.56L94.68 178.56C94.57 178.05 94.61 177.55 94.78 177.09 94.96 176.62 95.27 176.21 95.68 175.92L103.15 170.09 109.38 157.44C109.6 156.98 110.16 156.8 110.61 157.02 111.07 157.24 111.26 157.89 111.03 158.34L104.7 171.08C104.64 171.2 104.55 171.31 104.44 171.4L96.8 177.36C96.78 177.38 96.76 177.39 96.74 177.41 96.63 177.49 96.54 177.61 96.49 177.74 96.45 177.85 96.43 177.98 96.45 178.11 96.46 178.14 96.46 178.17 96.47 178.19 96.52 178.36 96.63 178.5 96.77 178.59 96.91 178.68 97.09 178.72 97.27 178.69 97.3 178.68 97.32 178.68 97.35 178.67 97.38 178.66 97.41 178.65 97.45 178.63L97.45 178.63C97.48 178.62 97.51 178.6 97.54 178.58 97.56 178.56 97.58 178.55 97.61 178.53L106.04 172.91C106.12 172.86 106.19 172.8 106.26 172.74 106.32 172.67 106.38 172.6 106.42 172.52L106.42 172.52 106.45 172.47 113.4 161.95Z" fill="#0087CA" fill-rule="evenodd" clip-rule="evenodd"/><path d="M119.09 138.92 118.2 138.92C116.54 138.92 115.05 139.92 114.42 141.34 114.84 144.3 116.02 144.02 117.41 145.51 118.88 147.08 117.93 149.44 119.83 149.58 120.57 149.63 122.19 149.33 122.74 148.5L122.95 148.32C122.96 148.23 122.97 148.14 122.97 148.05L123.2 143.03C123.31 140.77 121.36 138.92 119.09 138.92Z" fill="#00CEF0" fill-rule="evenodd" clip-rule="evenodd"/><path d="M119.09 139.84 118.2 139.84C117.56 139.84 116.95 140.03 116.44 140.35 115.99 140.63 115.62 141.02 115.37 141.48 115.63 142.94 116.13 143.31 116.77 143.77L116.77 143.77 116.77 143.77C117.16 144.05 117.6 144.37 118.07 144.88 118.89 145.75 119.1 146.72 119.28 147.58 119.4 148.16 119.51 148.63 119.89 148.66 120.21 148.68 120.77 148.61 121.28 148.42L121.35 148.4C121.63 148.29 121.87 148.15 121.97 147.99 122 147.95 122.03 147.91 122.06 147.88L122.29 142.99 122.29 142.85C122.29 142.05 121.95 141.32 121.4 140.78 120.84 140.23 120.07 139.87 119.25 139.83L119.09 139.84 119.09 139.84ZM118.2 138 119.09 138C119.13 138 119.21 138 119.32 138.01 120.61 138.07 121.81 138.62 122.68 139.48 123.57 140.35 124.12 141.54 124.12 142.86 124.12 142.89 124.12 142.96 124.11 143.07L123.87 148.25 123.85 148.41C123.83 148.64 123.72 148.86 123.53 149.02L123.4 149.13C123.06 149.58 122.54 149.9 121.99 150.11 121.96 150.12 121.94 150.13 121.91 150.14 121.15 150.42 120.28 150.52 119.75 150.49 117.99 150.36 117.76 149.27 117.47 147.95 117.34 147.33 117.18 146.63 116.72 146.13 116.37 145.75 116.01 145.49 115.68 145.25L115.68 145.25C114.65 144.5 113.84 143.92 113.49 141.45 113.47 141.29 113.49 141.11 113.56 140.95 113.96 140.07 114.62 139.32 115.44 138.79 116.25 138.29 117.2 138 118.2 138Z" fill="#0087CA" fill-rule="evenodd" clip-rule="evenodd"/></g><g><path d="M78.56 140.96C83.08 138.37 85.87 134.78 85.87 130.81 85.87 122.91 74.77 116.5 61.08 116.5 47.39 116.5 36.29 122.91 36.29 130.81 36.29 134.78 39.09 138.37 43.6 140.96 48.08 138.39 54.26 136.8 61.08 136.8 67.9 136.79 74.08 138.38 78.56 140.96Z" fill="#0087CA" fill-rule="evenodd" clip-rule="evenodd"/><path d="M61.08 144.25C67.11 144.25 72.61 142.99 76.83 140.9L76.83 140.9C72.61 138.81 67.11 137.55 61.09 137.55 55.06 137.55 49.56 138.81 45.35 140.9 49.55 142.99 55.05 144.25 61.08 144.25L61.08 144.25ZM78.65 139.9C74.07 137.37 67.88 135.81 61.08 135.81 54.28 135.81 48.09 137.37 43.51 139.9L43.51 139.9C39.57 137.5 37.16 134.3 37.16 130.81 37.16 127.19 39.77 123.88 43.99 121.44 48.35 118.92 54.39 117.37 61.08 117.37 67.77 117.37 73.82 118.93 78.17 121.44L78.17 121.44 78.17 121.44C82.39 123.87 84.99 127.19 84.99 130.81 85 134.29 82.59 137.49 78.65 139.9L78.65 139.9ZM79.04 141.68C74.43 144.34 68.08 145.99 61.08 145.99 54.08 145.99 47.73 144.34 43.12 141.68 38.36 138.93 35.42 135.09 35.42 130.81 35.42 126.52 38.36 122.68 43.12 119.94 47.73 117.28 54.09 115.63 61.08 115.63 68.08 115.63 74.43 117.28 79.04 119.94L79.04 119.94C83.8 122.69 86.74 126.53 86.74 130.81 86.74 135.09 83.8 138.93 79.04 141.68Z" fill="#0087CA" fill-rule="evenodd" clip-rule="evenodd"/></g></g></svg>